<svg width="385" height="116" viewBox="0 0 385 116" fill="none" xmlns="http://www.w3.org/2000/svg">
<rect width="385" height="116" fill="#F4EFE1"/>
<path d="M14.16 18.36V22.008H17.04V18.36H18.12V27H17.04V22.992H14.16V27H13.08V18.36H14.16ZM22.7953 27.12C21.9713 27.12 21.3233 26.896 20.8513 26.448C20.3873 26 20.1553 25.384 20.1553 24.6V22.8C20.1553 22.016 20.3873 21.4 20.8513 20.952C21.3233 20.504 21.9713 20.28 22.7953 20.28C23.6193 20.28 24.2633 20.504 24.7273 20.952C25.1993 21.4 25.4353 22.016 25.4353 22.8V24.012H21.2353V24.54C21.2353 25.044 21.3713 25.44 21.6433 25.728C21.9233 26.016 22.3073 26.16 22.7953 26.16C23.1553 26.16 23.4673 26.104 23.7313 25.992C23.9953 25.88 24.1913 25.716 24.3193 25.5H25.3993C25.2633 26.004 24.9593 26.4 24.4873 26.688C24.0233 26.976 23.4593 27.12 22.7953 27.12ZM24.3553 23.112V22.8C24.3553 22.304 24.2193 21.92 23.9473 21.648C23.6753 21.376 23.2913 21.24 22.7953 21.24C22.2993 21.24 21.9153 21.376 21.6433 21.648C21.3713 21.92 21.2353 22.304 21.2353 22.8V23.112H24.3553ZM28.1906 20.4L29.7026 24.192C29.7746 24.376 29.8306 24.548 29.8706 24.708C29.9186 24.868 29.9546 25.008 29.9786 25.128C30.0106 25.28 30.0306 25.416 30.0386 25.536H30.1226C30.1306 25.416 30.1506 25.284 30.1826 25.14C30.2066 25.012 30.2386 24.868 30.2786 24.708C30.3186 24.548 30.3706 24.376 30.4346 24.192L31.8266 20.4H32.9906L29.7866 28.98H28.6346L29.5466 26.52L26.9906 20.4H28.1906ZM41.5013 20.4H43.4213V18.36H44.5013V20.4H47.0813V21.384H44.5013V25.296C44.5013 25.52 44.5693 25.696 44.7053 25.824C44.8493 25.952 45.0413 26.016 45.2813 26.016H46.9613V27H45.2813C44.7133 27 44.2613 26.844 43.9253 26.532C43.5893 26.22 43.4213 25.808 43.4213 25.296V21.384H41.5013V20.4ZM49.0326 18.24H50.1126V20.4C50.1126 20.512 50.1086 20.636 50.1006 20.772C50.1006 20.9 50.0966 21.02 50.0886 21.132C50.0726 21.268 50.0606 21.404 50.0526 21.54H50.1486C50.2526 21.14 50.4606 20.832 50.7726 20.616C51.0926 20.392 51.4886 20.28 51.9606 20.28C52.2886 20.28 52.5846 20.336 52.8486 20.448C53.1206 20.56 53.3486 20.72 53.5326 20.928C53.7246 21.128 53.8726 21.372 53.9766 21.66C54.0806 21.94 54.1326 22.256 54.1326 22.608V27H53.0526V22.788C53.0526 22.284 52.9246 21.892 52.6686 21.612C52.4126 21.332 52.0566 21.192 51.6006 21.192C51.1446 21.192 50.7806 21.344 50.5086 21.648C50.2446 21.944 50.1126 22.348 50.1126 22.86V27H49.0326V18.24ZM58.7719 27.12C57.9479 27.12 57.2999 26.896 56.8279 26.448C56.3639 26 56.1319 25.384 56.1319 24.6V22.8C56.1319 22.016 56.3639 21.4 56.8279 20.952C57.2999 20.504 57.9479 20.28 58.7719 20.28C59.5959 20.28 60.2399 20.504 60.7039 20.952C61.1759 21.4 61.4119 22.016 61.4119 22.8V24.012H57.2119V24.54C57.2119 25.044 57.3479 25.44 57.6199 25.728C57.8999 26.016 58.2839 26.16 58.7719 26.16C59.1319 26.16 59.4439 26.104 59.7079 25.992C59.9719 25.88 60.1679 25.716 60.2959 25.5H61.3759C61.2399 26.004 60.9359 26.4 60.4639 26.688C59.9999 26.976 59.4359 27.12 58.7719 27.12ZM60.3319 23.112V22.8C60.3319 22.304 60.1959 21.92 59.9239 21.648C59.6519 21.376 59.2679 21.24 58.7719 21.24C58.2759 21.24 57.8919 21.376 57.6199 21.648C57.3479 21.92 57.2119 22.304 57.2119 22.8V23.112H60.3319ZM63.7112 20.4H64.7312V21.54H64.8272C64.9312 21.148 65.1472 20.84 65.4752 20.616C65.8032 20.392 66.2072 20.28 66.6872 20.28C67.3832 20.28 67.9272 20.5 68.3192 20.94C68.7192 21.372 68.9192 21.968 68.9192 22.728V23.1H67.8392V22.86C67.8392 22.34 67.7072 21.94 67.4432 21.66C67.1872 21.372 66.8192 21.228 66.3392 21.228C65.8672 21.228 65.4912 21.376 65.2112 21.672C64.9312 21.96 64.7912 22.356 64.7912 22.86V27H63.7112V20.4ZM73.1625 27.12C72.3385 27.12 71.6905 26.896 71.2185 26.448C70.7545 26 70.5225 25.384 70.5225 24.6V22.8C70.5225 22.016 70.7545 21.4 71.2185 20.952C71.6905 20.504 72.3385 20.28 73.1625 20.28C73.9865 20.28 74.6305 20.504 75.0945 20.952C75.5665 21.4 75.8025 22.016 75.8025 22.8V24.012H71.6025V24.54C71.6025 25.044 71.7385 25.44 72.0105 25.728C72.2905 26.016 72.6745 26.16 73.1625 26.16C73.5225 26.16 73.8345 26.104 74.0985 25.992C74.3625 25.88 74.5585 25.716 74.6865 25.5H75.7665C75.6305 26.004 75.3265 26.4 74.8545 26.688C74.3905 26.976 73.8265 27.12 73.1625 27.12ZM74.7225 23.112V22.8C74.7225 22.304 74.5865 21.92 74.3145 21.648C74.0425 21.376 73.6585 21.24 73.1625 21.24C72.6665 21.24 72.2825 21.376 72.0105 21.648C71.7385 21.92 71.6025 22.304 71.6025 22.8V23.112H74.7225ZM81.2578 25.188L79.6978 28.92H78.7378L79.6978 25.188H81.2578ZM14.286 50.289V45.231H12.855V44.52H16.545V45.231H15.114V50.289H16.545V51H12.855V50.289H14.286ZM20.7535 44.016L19.5835 46.815H18.8635L19.5835 44.016H20.7535ZM23.351 46.05H23.99V46.779H24.053C24.077 46.515 24.161 46.314 24.305 46.176C24.449 46.032 24.641 45.96 24.881 45.96C25.121 45.96 25.319 46.032 25.475 46.176C25.631 46.314 25.739 46.515 25.799 46.779H25.844C25.868 46.515 25.952 46.314 26.096 46.176C26.24 46.032 26.432 45.96 26.672 45.96C26.978 45.96 27.215 46.074 27.383 46.302C27.551 46.524 27.635 46.833 27.635 47.229V51H26.933V47.229C26.933 47.019 26.885 46.86 26.789 46.752C26.699 46.638 26.567 46.581 26.393 46.581C26.027 46.581 25.844 46.812 25.844 47.274V51H25.142V47.229C25.142 47.055 25.1 46.905 25.016 46.779C24.938 46.647 24.8 46.581 24.602 46.581C24.422 46.581 24.281 46.647 24.179 46.779C24.095 46.899 24.053 47.064 24.053 47.274V51H23.351V46.05ZM75.2313 43.53H76.0863L72.8913 51.99H72.0363L75.2313 43.53ZM77.4778 47.895C77.4778 47.595 77.5168 47.325 77.5948 47.085C77.6788 46.845 77.7928 46.644 77.9368 46.482C78.0808 46.314 78.2548 46.185 78.4588 46.095C78.6628 46.005 78.8908 45.96 79.1428 45.96C79.5088 45.96 79.8118 46.044 80.0518 46.212C80.2918 46.374 80.4508 46.605 80.5288 46.905H80.6008C80.5948 46.803 80.5888 46.701 80.5828 46.599C80.5708 46.509 80.5618 46.416 80.5558 46.32C80.5558 46.218 80.5558 46.128 80.5558 46.05V44.43H81.3658V51H80.6008V50.145H80.5288C80.4508 50.445 80.2918 50.679 80.0518 50.847C79.8118 51.009 79.5088 51.09 79.1428 51.09C78.8908 51.09 78.6628 51.045 78.4588 50.955C78.2548 50.865 78.0808 50.739 77.9368 50.577C77.7928 50.409 77.6788 50.205 77.5948 49.965C77.5168 49.725 77.4778 49.455 77.4778 49.155V47.895ZM79.4488 50.388C79.7848 50.388 80.0518 50.277 80.2498 50.055C80.4538 49.833 80.5558 49.533 80.5558 49.155V47.895C80.5558 47.517 80.4538 47.217 80.2498 46.995C80.0518 46.773 79.7848 46.662 79.4488 46.662C79.0828 46.662 78.7978 46.77 78.5938 46.986C78.3898 47.202 78.2878 47.505 78.2878 47.895V49.155C78.2878 49.533 78.3898 49.833 78.5938 50.055C78.8038 50.277 79.0888 50.388 79.4488 50.388ZM82.9643 46.05H83.7743V49.254C83.7743 50.004 84.1313 50.379 84.8453 50.379C85.5713 50.379 85.9343 50.004 85.9343 49.254V46.05H86.7443V49.254C86.7443 49.842 86.5793 50.295 86.2493 50.613C85.9253 50.931 85.4573 51.09 84.8453 51.09C84.2453 51.09 83.7803 50.931 83.4503 50.613C83.1263 50.289 82.9643 49.836 82.9643 49.254V46.05ZM88.4508 47.67H92.0508V48.39H88.4508V47.67ZM93.5143 49.56C93.5143 49.326 93.5533 49.116 93.6313 48.93C93.7153 48.738 93.8323 48.576 93.9823 48.444C94.1383 48.312 94.3243 48.21 94.5403 48.138C94.7563 48.066 94.9993 48.03 95.2693 48.03H96.7453V47.625C96.7453 47.319 96.6433 47.082 96.4393 46.914C96.2413 46.74 95.9533 46.653 95.5753 46.653C95.2993 46.653 95.0623 46.704 94.8643 46.806C94.6723 46.908 94.5433 47.049 94.4773 47.229H93.6673C93.7513 46.839 93.9643 46.53 94.3063 46.302C94.6543 46.074 95.0833 45.96 95.5933 45.96C96.2053 45.96 96.6853 46.104 97.0333 46.392C97.3813 46.674 97.5553 47.07 97.5553 47.58V51H96.8173V50.055H96.7453C96.6673 50.373 96.4843 50.625 96.1963 50.811C95.9083 50.997 95.5573 51.09 95.1433 51.09C94.6453 51.09 94.2493 50.952 93.9553 50.676C93.6613 50.4 93.5143 50.028 93.5143 49.56ZM95.3233 50.424C95.5273 50.424 95.7163 50.397 95.8903 50.343C96.0643 50.289 96.2143 50.214 96.3403 50.118C96.4663 50.016 96.5653 49.899 96.6373 49.767C96.7093 49.635 96.7453 49.491 96.7453 49.335V48.66H95.2873C94.9873 48.66 94.7503 48.738 94.5763 48.894C94.4083 49.05 94.3243 49.266 94.3243 49.542C94.3243 49.818 94.4113 50.034 94.5853 50.19C94.7593 50.346 95.0053 50.424 95.3233 50.424ZM99.3518 46.05H100.117V46.905H100.189C100.267 46.611 100.429 46.38 100.675 46.212C100.921 46.044 101.224 45.96 101.584 45.96C102.106 45.96 102.514 46.125 102.808 46.455C103.108 46.779 103.258 47.226 103.258 47.796V48.075H102.448V47.895C102.448 47.505 102.349 47.205 102.151 46.995C101.959 46.779 101.683 46.671 101.323 46.671C100.969 46.671 100.687 46.782 100.477 47.004C100.267 47.22 100.162 47.517 100.162 47.895V51H99.3518V46.05ZM104.28 46.05H105.72V44.52H106.53V46.05H108.465V46.788H106.53V49.722C106.53 49.89 106.581 50.022 106.683 50.118C106.791 50.214 106.935 50.262 107.115 50.262H108.375V51H107.115C106.689 51 106.35 50.883 106.098 50.649C105.846 50.415 105.72 50.106 105.72 49.722V46.788H104.28V46.05ZM113.007 43.53H113.862L110.667 51.99H109.812L113.007 43.53ZM117.908 49.641L116.738 52.44H116.018L116.738 49.641H117.908ZM125.893 49.56C125.893 49.326 125.932 49.116 126.01 48.93C126.094 48.738 126.211 48.576 126.361 48.444C126.517 48.312 126.703 48.21 126.919 48.138C127.135 48.066 127.378 48.03 127.648 48.03H129.124V47.625C129.124 47.319 129.022 47.082 128.818 46.914C128.62 46.74 128.332 46.653 127.954 46.653C127.678 46.653 127.441 46.704 127.243 46.806C127.051 46.908 126.922 47.049 126.856 47.229H126.046C126.13 46.839 126.343 46.53 126.685 46.302C127.033 46.074 127.462 45.96 127.972 45.96C128.584 45.96 129.064 46.104 129.412 46.392C129.76 46.674 129.934 47.07 129.934 47.58V51H129.196V50.055H129.124C129.046 50.373 128.863 50.625 128.575 50.811C128.287 50.997 127.936 51.09 127.522 51.09C127.024 51.09 126.628 50.952 126.334 50.676C126.04 50.4 125.893 50.028 125.893 49.56ZM127.702 50.424C127.906 50.424 128.095 50.397 128.269 50.343C128.443 50.289 128.593 50.214 128.719 50.118C128.845 50.016 128.944 49.899 129.016 49.767C129.088 49.635 129.124 49.491 129.124 49.335V48.66H127.666C127.366 48.66 127.129 48.738 126.955 48.894C126.787 49.05 126.703 49.266 126.703 49.542C126.703 49.818 126.79 50.034 126.964 50.19C127.138 50.346 127.384 50.424 127.702 50.424ZM136.911 51V46.05H137.676V46.905H137.748C137.826 46.605 137.982 46.374 138.216 46.212C138.456 46.044 138.753 45.96 139.107 45.96C139.353 45.96 139.575 46.002 139.773 46.086C139.977 46.17 140.148 46.29 140.286 46.446C140.43 46.596 140.541 46.779 140.619 46.995C140.697 47.205 140.736 47.442 140.736 47.706V51H139.926V47.841C139.926 47.463 139.83 47.169 139.638 46.959C139.446 46.749 139.179 46.644 138.837 46.644C138.495 46.644 138.222 46.758 138.018 46.986C137.82 47.208 137.721 47.511 137.721 47.895V51H136.911ZM144.216 51.09C143.598 51.09 143.112 50.922 142.758 50.586C142.41 50.25 142.236 49.788 142.236 49.2V47.85C142.236 47.262 142.41 46.8 142.758 46.464C143.112 46.128 143.598 45.96 144.216 45.96C144.834 45.96 145.317 46.128 145.665 46.464C146.019 46.8 146.196 47.262 146.196 47.85V48.759H143.046V49.155C143.046 49.533 143.148 49.83 143.352 50.046C143.562 50.262 143.85 50.37 144.216 50.37C144.486 50.37 144.72 50.328 144.918 50.244C145.116 50.16 145.263 50.037 145.359 49.875H146.169C146.067 50.253 145.839 50.55 145.485 50.766C145.137 50.982 144.714 51.09 144.216 51.09ZM145.386 48.084V47.85C145.386 47.478 145.284 47.19 145.08 46.986C144.876 46.782 144.588 46.68 144.216 46.68C143.844 46.68 143.556 46.782 143.352 46.986C143.148 47.19 143.046 47.478 143.046 47.85V48.084H145.386ZM147.92 46.05H148.685V46.905H148.757C148.835 46.611 148.997 46.38 149.243 46.212C149.489 46.044 149.792 45.96 150.152 45.96C150.674 45.96 151.082 46.125 151.376 46.455C151.676 46.779 151.826 47.226 151.826 47.796V48.075H151.016V47.895C151.016 47.505 150.917 47.205 150.719 46.995C150.527 46.779 150.251 46.671 149.891 46.671C149.537 46.671 149.255 46.782 149.045 47.004C148.835 47.22 148.73 47.517 148.73 47.895V51H147.92V46.05ZM153.029 47.895C153.029 47.595 153.068 47.325 153.146 47.085C153.23 46.845 153.344 46.644 153.488 46.482C153.632 46.314 153.806 46.185 154.01 46.095C154.214 46.005 154.442 45.96 154.694 45.96C155.06 45.96 155.363 46.044 155.603 46.212C155.843 46.374 156.002 46.605 156.08 46.905H156.152C156.146 46.803 156.14 46.701 156.134 46.599C156.122 46.509 156.113 46.416 156.107 46.32C156.107 46.218 156.107 46.128 156.107 46.05V44.43H156.917V51H156.152V50.145H156.08C156.002 50.445 155.843 50.679 155.603 50.847C155.363 51.009 155.06 51.09 154.694 51.09C154.442 51.09 154.214 51.045 154.01 50.955C153.806 50.865 153.632 50.739 153.488 50.577C153.344 50.409 153.23 50.205 153.146 49.965C153.068 49.725 153.029 49.455 153.029 49.155V47.895ZM155 50.388C155.336 50.388 155.603 50.277 155.801 50.055C156.005 49.833 156.107 49.533 156.107 49.155V47.895C156.107 47.517 156.005 47.217 155.801 46.995C155.603 46.773 155.336 46.662 155 46.662C154.634 46.662 154.349 46.77 154.145 46.986C153.941 47.202 153.839 47.505 153.839 47.895V49.155C153.839 49.533 153.941 49.833 154.145 50.055C154.355 50.277 154.64 50.388 155 50.388ZM163.642 47.283V46.545H165.082V45.69C165.082 45.294 165.205 44.985 165.451 44.763C165.697 44.541 166.036 44.43 166.468 44.43H167.917V45.168H166.468C166.084 45.168 165.892 45.342 165.892 45.69V46.545H167.917V47.283H165.892V51H165.082V47.283H163.642ZM169.506 46.05H170.271V46.905H170.343C170.421 46.611 170.583 46.38 170.829 46.212C171.075 46.044 171.378 45.96 171.738 45.96C172.26 45.96 172.668 46.125 172.962 46.455C173.262 46.779 173.412 47.226 173.412 47.796V48.075H172.602V47.895C172.602 47.505 172.503 47.205 172.305 46.995C172.113 46.779 171.837 46.671 171.477 46.671C171.123 46.671 170.841 46.782 170.631 47.004C170.421 47.22 170.316 47.517 170.316 47.895V51H169.506V46.05ZM175.425 49.155C175.425 49.533 175.527 49.83 175.731 50.046C175.941 50.262 176.229 50.37 176.595 50.37C176.955 50.37 177.24 50.262 177.45 50.046C177.66 49.83 177.765 49.533 177.765 49.155V47.895C177.765 47.517 177.66 47.22 177.45 47.004C177.24 46.788 176.955 46.68 176.595 46.68C176.235 46.68 175.95 46.788 175.74 47.004C175.53 47.22 175.425 47.517 175.425 47.895V49.155ZM174.615 47.895C174.615 47.595 174.66 47.328 174.75 47.094C174.846 46.854 174.978 46.65 175.146 46.482C175.32 46.314 175.527 46.185 175.767 46.095C176.013 46.005 176.289 45.96 176.595 45.96C177.207 45.96 177.69 46.131 178.044 46.473C178.398 46.815 178.575 47.286 178.575 47.886V49.155C178.575 49.455 178.53 49.725 178.44 49.965C178.35 50.205 178.218 50.409 178.044 50.577C177.876 50.739 177.669 50.865 177.423 50.955C177.177 51.045 176.901 51.09 176.595 51.09C176.289 51.09 176.013 51.045 175.767 50.955C175.527 50.865 175.32 50.736 175.146 50.568C174.978 50.4 174.846 50.196 174.75 49.956C174.66 49.716 174.615 49.449 174.615 49.155V47.895ZM179.849 46.05H180.488V46.779H180.551C180.575 46.515 180.659 46.314 180.803 46.176C180.947 46.032 181.139 45.96 181.379 45.96C181.619 45.96 181.817 46.032 181.973 46.176C182.129 46.314 182.237 46.515 182.297 46.779H182.342C182.366 46.515 182.45 46.314 182.594 46.176C182.738 46.032 182.93 45.96 183.17 45.96C183.476 45.96 183.713 46.074 183.881 46.302C184.049 46.524 184.133 46.833 184.133 47.229V51H183.431V47.229C183.431 47.019 183.383 46.86 183.287 46.752C183.197 46.638 183.065 46.581 182.891 46.581C182.525 46.581 182.342 46.812 182.342 47.274V51H181.64V47.229C181.64 47.055 181.598 46.905 181.514 46.779C181.436 46.647 181.298 46.581 181.1 46.581C180.92 46.581 180.779 46.647 180.677 46.779C180.593 46.899 180.551 47.064 180.551 47.274V51H179.849V46.05ZM193.081 44.52C193.375 44.52 193.642 44.565 193.882 44.655C194.122 44.745 194.326 44.874 194.494 45.042C194.668 45.21 194.8 45.411 194.89 45.645C194.986 45.873 195.034 46.128 195.034 46.41C195.034 46.692 194.986 46.95 194.89 47.184C194.794 47.412 194.659 47.61 194.485 47.778C194.317 47.946 194.113 48.075 193.873 48.165C193.633 48.255 193.369 48.3 193.081 48.3H191.704V51H190.894V44.52H193.081ZM191.704 45.24V47.58H193.081C193.417 47.58 193.687 47.475 193.891 47.265C194.095 47.049 194.197 46.764 194.197 46.41C194.197 46.056 194.095 45.774 193.891 45.564C193.687 45.348 193.417 45.24 193.081 45.24H191.704ZM197.01 49.155C197.01 49.533 197.112 49.83 197.316 50.046C197.526 50.262 197.814 50.37 198.18 50.37C198.54 50.37 198.825 50.262 199.035 50.046C199.245 49.83 199.35 49.533 199.35 49.155V47.895C199.35 47.517 199.245 47.22 199.035 47.004C198.825 46.788 198.54 46.68 198.18 46.68C197.82 46.68 197.535 46.788 197.325 47.004C197.115 47.22 197.01 47.517 197.01 47.895V49.155ZM196.2 47.895C196.2 47.595 196.245 47.328 196.335 47.094C196.431 46.854 196.563 46.65 196.731 46.482C196.905 46.314 197.112 46.185 197.352 46.095C197.598 46.005 197.874 45.96 198.18 45.96C198.792 45.96 199.275 46.131 199.629 46.473C199.983 46.815 200.16 47.286 200.16 47.886V49.155C200.16 49.455 200.115 49.725 200.025 49.965C199.935 50.205 199.803 50.409 199.629 50.577C199.461 50.739 199.254 50.865 199.008 50.955C198.762 51.045 198.486 51.09 198.18 51.09C197.874 51.09 197.598 51.045 197.352 50.955C197.112 50.865 196.905 50.736 196.731 50.568C196.563 50.4 196.431 50.196 196.335 49.956C196.245 49.716 196.2 49.449 196.2 49.155V47.895ZM201.885 46.05H202.65V46.905H202.722C202.8 46.611 202.962 46.38 203.208 46.212C203.454 46.044 203.757 45.96 204.117 45.96C204.639 45.96 205.047 46.125 205.341 46.455C205.641 46.779 205.791 47.226 205.791 47.796V48.075H204.981V47.895C204.981 47.505 204.882 47.205 204.684 46.995C204.492 46.779 204.216 46.671 203.856 46.671C203.502 46.671 203.22 46.782 203.01 47.004C202.8 47.22 202.695 47.517 202.695 47.895V51H201.885V46.05ZM206.813 46.05H208.253V44.52H209.063V46.05H210.998V46.788H209.063V49.722C209.063 49.89 209.114 50.022 209.216 50.118C209.324 50.214 209.468 50.262 209.648 50.262H210.908V51H209.648C209.222 51 208.883 50.883 208.631 50.649C208.379 50.415 208.253 50.106 208.253 49.722V46.788H206.813V46.05ZM212.48 46.05H213.29V49.254C213.29 50.004 213.647 50.379 214.361 50.379C215.087 50.379 215.45 50.004 215.45 49.254V46.05H216.26V49.254C216.26 49.842 216.095 50.295 215.765 50.613C215.441 50.931 214.973 51.09 214.361 51.09C213.761 51.09 213.296 50.931 212.966 50.613C212.642 50.289 212.48 49.836 212.48 49.254V46.05ZM217.723 47.85C217.723 47.562 217.762 47.301 217.84 47.067C217.918 46.833 218.029 46.635 218.173 46.473C218.323 46.311 218.503 46.185 218.713 46.095C218.923 46.005 219.157 45.96 219.415 45.96C219.775 45.96 220.081 46.047 220.333 46.221C220.585 46.389 220.756 46.632 220.846 46.95H220.909V46.05H221.674V50.64C221.674 51.222 221.503 51.675 221.161 51.999C220.819 52.323 220.339 52.485 219.721 52.485H218.506V51.747H219.721C220.081 51.747 220.36 51.651 220.558 51.459C220.762 51.267 220.864 50.994 220.864 50.64V50.46L220.9 49.56H220.846C220.756 49.878 220.585 50.124 220.333 50.298C220.081 50.466 219.775 50.55 219.415 50.55C219.157 50.55 218.923 50.505 218.713 50.415C218.509 50.325 218.332 50.199 218.182 50.037C218.038 49.875 217.924 49.677 217.84 49.443C217.762 49.209 217.723 48.948 217.723 48.66V47.85ZM218.551 48.66C218.551 49.032 218.653 49.323 218.857 49.533C219.067 49.743 219.352 49.848 219.712 49.848C220.072 49.848 220.354 49.743 220.558 49.533C220.762 49.323 220.864 49.032 220.864 48.66V47.85C220.864 47.478 220.762 47.187 220.558 46.977C220.354 46.767 220.072 46.662 219.712 46.662C219.352 46.662 219.067 46.767 218.857 46.977C218.653 47.187 218.551 47.478 218.551 47.85V48.66ZM223.03 49.56C223.03 49.326 223.069 49.116 223.147 48.93C223.231 48.738 223.348 48.576 223.498 48.444C223.654 48.312 223.84 48.21 224.056 48.138C224.272 48.066 224.515 48.03 224.785 48.03H226.261V47.625C226.261 47.319 226.159 47.082 225.955 46.914C225.757 46.74 225.469 46.653 225.091 46.653C224.815 46.653 224.578 46.704 224.38 46.806C224.188 46.908 224.059 47.049 223.993 47.229H223.183C223.267 46.839 223.48 46.53 223.822 46.302C224.17 46.074 224.599 45.96 225.109 45.96C225.721 45.96 226.201 46.104 226.549 46.392C226.897 46.674 227.071 47.07 227.071 47.58V51H226.333V50.055H226.261C226.183 50.373 226 50.625 225.712 50.811C225.424 50.997 225.073 51.09 224.659 51.09C224.161 51.09 223.765 50.952 223.471 50.676C223.177 50.4 223.03 50.028 223.03 49.56ZM224.839 50.424C225.043 50.424 225.232 50.397 225.406 50.343C225.58 50.289 225.73 50.214 225.856 50.118C225.982 50.016 226.081 49.899 226.153 49.767C226.225 49.635 226.261 49.491 226.261 49.335V48.66H224.803C224.503 48.66 224.266 48.738 224.092 48.894C223.924 49.05 223.84 49.266 223.84 49.542C223.84 49.818 223.927 50.034 224.101 50.19C224.275 50.346 224.521 50.424 224.839 50.424ZM230.667 44.43V49.56C230.667 49.782 230.727 49.956 230.847 50.082C230.967 50.202 231.132 50.262 231.342 50.262H232.809V51H231.342C230.88 51 230.517 50.874 230.253 50.622C229.989 50.364 229.857 50.01 229.857 49.56V45.168H228.219V44.43H230.667ZM236.631 49.641L235.461 52.44H234.741L235.461 49.641H236.631ZM246.857 44.43V49.56C246.857 49.782 246.917 49.956 247.037 50.082C247.157 50.202 247.322 50.262 247.532 50.262H248.999V51H247.532C247.07 51 246.707 50.874 246.443 50.622C246.179 50.364 246.047 50.01 246.047 49.56V45.168H244.409V44.43H246.857ZM250.3 51V50.262H252.1V46.788H250.525V46.05H252.91V50.262H254.395V51H250.3ZM252.28 44.115H252.46C252.634 44.115 252.775 44.166 252.883 44.268C252.991 44.37 253.045 44.502 253.045 44.664C253.045 44.826 252.991 44.955 252.883 45.051C252.775 45.147 252.634 45.195 252.46 45.195H252.28C252.106 45.195 251.965 45.15 251.857 45.06C251.749 44.964 251.695 44.832 251.695 44.664C251.695 44.502 251.749 44.37 251.857 44.268C251.965 44.166 252.106 44.115 252.28 44.115ZM255.292 46.05H256.147L257.353 49.551C257.401 49.689 257.437 49.812 257.461 49.92C257.485 50.022 257.503 50.109 257.515 50.181C257.527 50.271 257.533 50.349 257.533 50.415H257.614C257.608 50.349 257.611 50.271 257.623 50.181C257.635 50.109 257.65 50.022 257.668 49.92C257.686 49.812 257.719 49.689 257.767 49.551L258.91 46.05H259.792L258.019 51H257.101L255.292 46.05ZM261.093 51V50.262H262.893V46.788H261.318V46.05H263.703V50.262H265.188V51H261.093ZM263.073 44.115H263.253C263.427 44.115 263.568 44.166 263.676 44.268C263.784 44.37 263.838 44.502 263.838 44.664C263.838 44.826 263.784 44.955 263.676 45.051C263.568 45.147 263.427 45.195 263.253 45.195H263.073C262.899 45.195 262.758 45.15 262.65 45.06C262.542 44.964 262.488 44.832 262.488 44.664C262.488 44.502 262.542 44.37 262.65 44.268C262.758 44.166 262.899 44.115 263.073 44.115ZM266.427 51V46.05H267.192V46.905H267.264C267.342 46.605 267.498 46.374 267.732 46.212C267.972 46.044 268.269 45.96 268.623 45.96C268.869 45.96 269.091 46.002 269.289 46.086C269.493 46.17 269.664 46.29 269.802 46.446C269.946 46.596 270.057 46.779 270.135 46.995C270.213 47.205 270.252 47.442 270.252 47.706V51H269.442V47.841C269.442 47.463 269.346 47.169 269.154 46.959C268.962 46.749 268.695 46.644 268.353 46.644C268.011 46.644 267.738 46.758 267.534 46.986C267.336 47.208 267.237 47.511 267.237 47.895V51H266.427ZM271.688 47.85C271.688 47.562 271.727 47.301 271.805 47.067C271.883 46.833 271.994 46.635 272.138 46.473C272.288 46.311 272.468 46.185 272.678 46.095C272.888 46.005 273.122 45.96 273.38 45.96C273.74 45.96 274.046 46.047 274.298 46.221C274.55 46.389 274.721 46.632 274.811 46.95H274.874V46.05H275.639V50.64C275.639 51.222 275.468 51.675 275.126 51.999C274.784 52.323 274.304 52.485 273.686 52.485H272.471V51.747H273.686C274.046 51.747 274.325 51.651 274.523 51.459C274.727 51.267 274.829 50.994 274.829 50.64V50.46L274.865 49.56H274.811C274.721 49.878 274.55 50.124 274.298 50.298C274.046 50.466 273.74 50.55 273.38 50.55C273.122 50.55 272.888 50.505 272.678 50.415C272.474 50.325 272.297 50.199 272.147 50.037C272.003 49.875 271.889 49.677 271.805 49.443C271.727 49.209 271.688 48.948 271.688 48.66V47.85ZM272.516 48.66C272.516 49.032 272.618 49.323 272.822 49.533C273.032 49.743 273.317 49.848 273.677 49.848C274.037 49.848 274.319 49.743 274.523 49.533C274.727 49.323 274.829 49.032 274.829 48.66V47.85C274.829 47.478 274.727 47.187 274.523 46.977C274.319 46.767 274.037 46.662 273.677 46.662C273.317 46.662 273.032 46.767 272.822 46.977C272.618 47.187 272.516 47.478 272.516 47.85V48.66ZM282.679 51V50.262H284.479V46.788H282.904V46.05H285.289V50.262H286.774V51H282.679ZM284.659 44.115H284.839C285.013 44.115 285.154 44.166 285.262 44.268C285.37 44.37 285.424 44.502 285.424 44.664C285.424 44.826 285.37 44.955 285.262 45.051C285.154 45.147 285.013 45.195 284.839 45.195H284.659C284.485 45.195 284.344 45.15 284.236 45.06C284.128 44.964 284.074 44.832 284.074 44.664C284.074 44.502 284.128 44.37 284.236 44.268C284.344 44.166 284.485 44.115 284.659 44.115ZM288.013 51V46.05H288.778V46.905H288.85C288.928 46.605 289.084 46.374 289.318 46.212C289.558 46.044 289.855 45.96 290.209 45.96C290.455 45.96 290.677 46.002 290.875 46.086C291.079 46.17 291.25 46.29 291.388 46.446C291.532 46.596 291.643 46.779 291.721 46.995C291.799 47.205 291.838 47.442 291.838 47.706V51H291.028V47.841C291.028 47.463 290.932 47.169 290.74 46.959C290.548 46.749 290.281 46.644 289.939 46.644C289.597 46.644 289.324 46.758 289.12 46.986C288.922 47.208 288.823 47.511 288.823 47.895V51H288.013ZM300.615 50.28C300.993 50.28 301.296 50.166 301.524 49.938C301.758 49.704 301.875 49.398 301.875 49.02V46.491C301.875 46.113 301.758 45.81 301.524 45.582C301.296 45.354 300.993 45.24 300.615 45.24H299.616V50.28H300.615ZM298.806 51V44.52H300.615C300.927 44.52 301.209 44.568 301.461 44.664C301.719 44.76 301.938 44.895 302.118 45.069C302.304 45.237 302.445 45.444 302.541 45.69C302.643 45.93 302.694 46.197 302.694 46.491V49.02C302.694 49.314 302.643 49.584 302.541 49.83C302.445 50.076 302.304 50.286 302.118 50.46C301.938 50.628 301.719 50.76 301.461 50.856C301.209 50.952 300.927 51 300.615 51H298.806ZM306.11 51.09C305.492 51.09 305.006 50.922 304.652 50.586C304.304 50.25 304.13 49.788 304.13 49.2V47.85C304.13 47.262 304.304 46.8 304.652 46.464C305.006 46.128 305.492 45.96 306.11 45.96C306.728 45.96 307.211 46.128 307.559 46.464C307.913 46.8 308.09 47.262 308.09 47.85V48.759H304.94V49.155C304.94 49.533 305.042 49.83 305.246 50.046C305.456 50.262 305.744 50.37 306.11 50.37C306.38 50.37 306.614 50.328 306.812 50.244C307.01 50.16 307.157 50.037 307.253 49.875H308.063C307.961 50.253 307.733 50.55 307.379 50.766C307.031 50.982 306.608 51.09 306.11 51.09ZM307.28 48.084V47.85C307.28 47.478 307.178 47.19 306.974 46.986C306.77 46.782 306.482 46.68 306.11 46.68C305.738 46.68 305.45 46.782 305.246 46.986C305.042 47.19 304.94 47.478 304.94 47.85V48.084H307.28ZM309.599 51V46.05H310.364V46.905H310.436C310.514 46.605 310.67 46.374 310.904 46.212C311.144 46.044 311.441 45.96 311.795 45.96C312.041 45.96 312.263 46.002 312.461 46.086C312.665 46.17 312.836 46.29 312.974 46.446C313.118 46.596 313.229 46.779 313.307 46.995C313.385 47.205 313.424 47.442 313.424 47.706V51H312.614V47.841C312.614 47.463 312.518 47.169 312.326 46.959C312.134 46.749 311.867 46.644 311.525 46.644C311.183 46.644 310.91 46.758 310.706 46.986C310.508 47.208 310.409 47.511 310.409 47.895V51H309.599ZM314.761 46.05H315.4V46.779H315.463C315.487 46.515 315.571 46.314 315.715 46.176C315.859 46.032 316.051 45.96 316.291 45.96C316.531 45.96 316.729 46.032 316.885 46.176C317.041 46.314 317.149 46.515 317.209 46.779H317.254C317.278 46.515 317.362 46.314 317.506 46.176C317.65 46.032 317.842 45.96 318.082 45.96C318.388 45.96 318.625 46.074 318.793 46.302C318.961 46.524 319.045 46.833 319.045 47.229V51H318.343V47.229C318.343 47.019 318.295 46.86 318.199 46.752C318.109 46.638 317.977 46.581 317.803 46.581C317.437 46.581 317.254 46.812 317.254 47.274V51H316.552V47.229C316.552 47.055 316.51 46.905 316.426 46.779C316.348 46.647 316.21 46.581 316.012 46.581C315.832 46.581 315.691 46.647 315.589 46.779C315.505 46.899 315.463 47.064 315.463 47.274V51H314.761V46.05ZM320.167 49.56C320.167 49.326 320.206 49.116 320.284 48.93C320.368 48.738 320.485 48.576 320.635 48.444C320.791 48.312 320.977 48.21 321.193 48.138C321.409 48.066 321.652 48.03 321.922 48.03H323.398V47.625C323.398 47.319 323.296 47.082 323.092 46.914C322.894 46.74 322.606 46.653 322.228 46.653C321.952 46.653 321.715 46.704 321.517 46.806C321.325 46.908 321.196 47.049 321.13 47.229H320.32C320.404 46.839 320.617 46.53 320.959 46.302C321.307 46.074 321.736 45.96 322.246 45.96C322.858 45.96 323.338 46.104 323.686 46.392C324.034 46.674 324.208 47.07 324.208 47.58V51H323.47V50.055H323.398C323.32 50.373 323.137 50.625 322.849 50.811C322.561 50.997 322.21 51.09 321.796 51.09C321.298 51.09 320.902 50.952 320.608 50.676C320.314 50.4 320.167 50.028 320.167 49.56ZM321.976 50.424C322.18 50.424 322.369 50.397 322.543 50.343C322.717 50.289 322.867 50.214 322.993 50.118C323.119 50.016 323.218 49.899 323.29 49.767C323.362 49.635 323.398 49.491 323.398 49.335V48.66H321.94C321.64 48.66 321.403 48.738 321.229 48.894C321.061 49.05 320.977 49.266 320.977 49.542C320.977 49.818 321.064 50.034 321.238 50.19C321.412 50.346 321.658 50.424 321.976 50.424ZM326.004 46.05H326.769V46.905H326.841C326.919 46.611 327.081 46.38 327.327 46.212C327.573 46.044 327.876 45.96 328.236 45.96C328.758 45.96 329.166 46.125 329.46 46.455C329.76 46.779 329.91 47.226 329.91 47.796V48.075H329.1V47.895C329.1 47.505 329.001 47.205 328.803 46.995C328.611 46.779 328.335 46.671 327.975 46.671C327.621 46.671 327.339 46.782 327.129 47.004C326.919 47.22 326.814 47.517 326.814 47.895V51H326.004V46.05ZM332.04 44.43V48.12H333.012L334.524 46.05H335.451L333.696 48.444L335.478 51H334.533L333.021 48.84H332.04V51H331.23V44.43H332.04ZM337.715 50.289C337.715 50.055 337.784 49.869 337.922 49.731C338.066 49.587 338.255 49.515 338.489 49.515C338.723 49.515 338.909 49.587 339.047 49.731C339.191 49.869 339.263 50.055 339.263 50.289C339.263 50.529 339.191 50.724 339.047 50.874C338.909 51.018 338.723 51.09 338.489 51.09C338.255 51.09 338.066 51.018 337.922 50.874C337.784 50.724 337.715 50.529 337.715 50.289ZM14.286 80.289V75.231H12.855V74.52H16.545V75.231H15.114V80.289H16.545V81H12.855V80.289H14.286ZM25.601 74.43V79.56C25.601 79.782 25.661 79.956 25.781 80.082C25.901 80.202 26.066 80.262 26.276 80.262H27.743V81H26.276C25.814 81 25.451 80.874 25.187 80.622C24.923 80.364 24.791 80.01 24.791 79.56V75.168H23.153V74.43H25.601ZM29.0445 81V80.262H30.8445V76.788H29.2695V76.05H31.6545V80.262H33.1395V81H29.0445ZM31.0245 74.115H31.2045C31.3785 74.115 31.5195 74.166 31.6275 74.268C31.7355 74.37 31.7895 74.502 31.7895 74.664C31.7895 74.826 31.7355 74.955 31.6275 75.051C31.5195 75.147 31.3785 75.195 31.2045 75.195H31.0245C30.8505 75.195 30.7095 75.15 30.6015 75.06C30.4935 74.964 30.4395 74.832 30.4395 74.664C30.4395 74.502 30.4935 74.37 30.6015 74.268C30.7095 74.166 30.8505 74.115 31.0245 74.115ZM35.2329 74.43V78.12H36.2049L37.7169 76.05H38.6439L36.8889 78.444L38.6709 81H37.7259L36.2139 78.84H35.2329V81H34.4229V74.43H35.2329ZM41.6824 81.09C41.0644 81.09 40.5784 80.922 40.2244 80.586C39.8764 80.25 39.7024 79.788 39.7024 79.2V77.85C39.7024 77.262 39.8764 76.8 40.2244 76.464C40.5784 76.128 41.0644 75.96 41.6824 75.96C42.3004 75.96 42.7834 76.128 43.1314 76.464C43.4854 76.8 43.6624 77.262 43.6624 77.85V78.759H40.5124V79.155C40.5124 79.533 40.6144 79.83 40.8184 80.046C41.0284 80.262 41.3164 80.37 41.6824 80.37C41.9524 80.37 42.1864 80.328 42.3844 80.244C42.5824 80.16 42.7294 80.037 42.8254 79.875H43.6354C43.5334 80.253 43.3054 80.55 42.9514 80.766C42.6034 80.982 42.1804 81.09 41.6824 81.09ZM42.8524 78.084V77.85C42.8524 77.478 42.7504 77.19 42.5464 76.986C42.3424 76.782 42.0544 76.68 41.6824 76.68C41.3104 76.68 41.0224 76.782 40.8184 76.986C40.6144 77.19 40.5124 77.478 40.5124 77.85V78.084H42.8524ZM50.4954 77.895C50.4954 77.595 50.5344 77.325 50.6124 77.085C50.6964 76.845 50.8104 76.644 50.9544 76.482C51.0984 76.314 51.2724 76.185 51.4764 76.095C51.6804 76.005 51.9084 75.96 52.1604 75.96C52.5264 75.96 52.8294 76.044 53.0694 76.212C53.3094 76.374 53.4684 76.605 53.5464 76.905H53.6184C53.6124 76.803 53.6064 76.701 53.6004 76.599C53.5884 76.509 53.5794 76.416 53.5734 76.32C53.5734 76.218 53.5734 76.128 53.5734 76.05V74.43H54.3834V81H53.6184V80.145H53.5464C53.4684 80.445 53.3094 80.679 53.0694 80.847C52.8294 81.009 52.5264 81.09 52.1604 81.09C51.9084 81.09 51.6804 81.045 51.4764 80.955C51.2724 80.865 51.0984 80.739 50.9544 80.577C50.8104 80.409 50.6964 80.205 50.6124 79.965C50.5344 79.725 50.4954 79.455 50.4954 79.155V77.895ZM52.4664 80.388C52.8024 80.388 53.0694 80.277 53.2674 80.055C53.4714 79.833 53.5734 79.533 53.5734 79.155V77.895C53.5734 77.517 53.4714 77.217 53.2674 76.995C53.0694 76.773 52.8024 76.662 52.4664 76.662C52.1004 76.662 51.8154 76.77 51.6114 76.986C51.4074 77.202 51.3054 77.505 51.3054 77.895V79.155C51.3054 79.533 51.4074 79.833 51.6114 80.055C51.8214 80.277 52.1064 80.388 52.4664 80.388ZM55.7389 79.56C55.7389 79.326 55.7779 79.116 55.8559 78.93C55.9399 78.738 56.0569 78.576 56.2069 78.444C56.3629 78.312 56.5489 78.21 56.7649 78.138C56.9809 78.066 57.2239 78.03 57.4939 78.03H58.9699V77.625C58.9699 77.319 58.8679 77.082 58.6639 76.914C58.4659 76.74 58.1779 76.653 57.7999 76.653C57.5239 76.653 57.2869 76.704 57.0889 76.806C56.8969 76.908 56.7679 77.049 56.7019 77.229H55.8919C55.9759 76.839 56.1889 76.53 56.5309 76.302C56.8789 76.074 57.3079 75.96 57.8179 75.96C58.4299 75.96 58.9099 76.104 59.2579 76.392C59.6059 76.674 59.7799 77.07 59.7799 77.58V81H59.0419V80.055H58.9699C58.8919 80.373 58.7089 80.625 58.4209 80.811C58.1329 80.997 57.7819 81.09 57.3679 81.09C56.8699 81.09 56.4739 80.952 56.1799 80.676C55.8859 80.4 55.7389 80.028 55.7389 79.56ZM57.5479 80.424C57.7519 80.424 57.9409 80.397 58.1149 80.343C58.2889 80.289 58.4389 80.214 58.5649 80.118C58.6909 80.016 58.7899 79.899 58.8619 79.767C58.9339 79.635 58.9699 79.491 58.9699 79.335V78.66H57.5119C57.2119 78.66 56.9749 78.738 56.8009 78.894C56.6329 79.05 56.5489 79.266 56.5489 79.542C56.5489 79.818 56.6359 80.034 56.8099 80.19C56.9839 80.346 57.2299 80.424 57.5479 80.424ZM61.1084 76.05H62.5484V74.52H63.3584V76.05H65.2934V76.788H63.3584V79.722C63.3584 79.89 63.4094 80.022 63.5114 80.118C63.6194 80.214 63.7634 80.262 63.9434 80.262H65.2034V81H63.9434C63.5174 81 63.1784 80.883 62.9264 80.649C62.6744 80.415 62.5484 80.106 62.5484 79.722V76.788H61.1084V76.05ZM66.5318 79.56C66.5318 79.326 66.5708 79.116 66.6488 78.93C66.7328 78.738 66.8498 78.576 66.9998 78.444C67.1558 78.312 67.3418 78.21 67.5578 78.138C67.7738 78.066 68.0168 78.03 68.2868 78.03H69.7628V77.625C69.7628 77.319 69.6608 77.082 69.4568 76.914C69.2588 76.74 68.9708 76.653 68.5928 76.653C68.3168 76.653 68.0798 76.704 67.8818 76.806C67.6898 76.908 67.5608 77.049 67.4948 77.229H66.6848C66.7688 76.839 66.9818 76.53 67.3238 76.302C67.6718 76.074 68.1008 75.96 68.6108 75.96C69.2228 75.96 69.7028 76.104 70.0508 76.392C70.3988 76.674 70.5728 77.07 70.5728 77.58V81H69.8348V80.055H69.7628C69.6848 80.373 69.5018 80.625 69.2138 80.811C68.9258 80.997 68.5748 81.09 68.1608 81.09C67.6628 81.09 67.2668 80.952 66.9728 80.676C66.6788 80.4 66.5318 80.028 66.5318 79.56ZM68.3408 80.424C68.5448 80.424 68.7338 80.397 68.9078 80.343C69.0818 80.289 69.2318 80.214 69.3578 80.118C69.4838 80.016 69.5828 79.899 69.6548 79.767C69.7268 79.635 69.7628 79.491 69.7628 79.335V78.66H68.3048C68.0048 78.66 67.7678 78.738 67.5938 78.894C67.4258 79.05 67.3418 79.266 67.3418 79.542C67.3418 79.818 67.4288 80.034 67.6028 80.19C67.7768 80.346 68.0228 80.424 68.3408 80.424ZM79.3228 81.09C78.8008 81.09 78.3688 80.973 78.0268 80.739C77.6908 80.499 77.4988 80.181 77.4508 79.785H78.3058C78.3418 79.959 78.4528 80.1 78.6388 80.208C78.8248 80.316 79.0528 80.37 79.3228 80.37H79.5748C79.8988 80.37 80.1508 80.304 80.3308 80.172C80.5108 80.034 80.6008 79.851 80.6008 79.623C80.6008 79.233 80.3248 78.996 79.7728 78.912L79.0258 78.804C78.5398 78.732 78.1768 78.579 77.9368 78.345C77.6968 78.111 77.5768 77.784 77.5768 77.364C77.5768 76.92 77.7328 76.575 78.0448 76.329C78.3628 76.083 78.8038 75.96 79.3678 75.96H79.6198C79.8598 75.96 80.0818 75.99 80.2858 76.05C80.4898 76.11 80.6698 76.197 80.8258 76.311C80.9818 76.419 81.1078 76.551 81.2038 76.707C81.3058 76.857 81.3718 77.025 81.4018 77.211H80.5468C80.5108 77.055 80.4088 76.929 80.2408 76.833C80.0728 76.731 79.8658 76.68 79.6198 76.68H79.3678C79.0618 76.68 78.8218 76.74 78.6478 76.86C78.4798 76.98 78.3958 77.16 78.3958 77.4C78.3958 77.592 78.4528 77.739 78.5668 77.841C78.6868 77.937 78.8788 78.003 79.1428 78.039L79.8898 78.147C80.4238 78.225 80.8108 78.381 81.0508 78.615C81.2968 78.849 81.4198 79.182 81.4198 79.614C81.4198 80.076 81.2578 80.439 80.9338 80.703C80.6158 80.961 80.1628 81.09 79.5748 81.09H79.3228ZM84.9263 81.09C84.6203 81.09 84.3443 81.045 84.0983 80.955C83.8583 80.865 83.6513 80.736 83.4773 80.568C83.3093 80.4 83.1773 80.196 83.0813 79.956C82.9913 79.716 82.9463 79.449 82.9463 79.155V77.895C82.9463 77.601 82.9913 77.334 83.0813 77.094C83.1773 76.854 83.3093 76.65 83.4773 76.482C83.6513 76.314 83.8583 76.185 84.0983 76.095C84.3443 76.005 84.6203 75.96 84.9263 75.96C85.4723 75.96 85.9193 76.11 86.2673 76.41C86.6213 76.704 86.8343 77.109 86.9063 77.625H86.0963C86.0543 77.337 85.9253 77.109 85.7093 76.941C85.4993 76.767 85.2383 76.68 84.9263 76.68C84.5663 76.68 84.2813 76.788 84.0713 77.004C83.8613 77.22 83.7563 77.517 83.7563 77.895V79.155C83.7563 79.533 83.8583 79.83 84.0623 80.046C84.2723 80.262 84.5603 80.37 84.9263 80.37C85.2383 80.37 85.4993 80.286 85.7093 80.118C85.9253 79.944 86.0543 79.713 86.0963 79.425H86.9063C86.8283 79.947 86.6123 80.355 86.2583 80.649C85.9103 80.943 85.4663 81.09 84.9263 81.09ZM88.4058 81V80.262H90.2058V76.788H88.6308V76.05H91.0158V80.262H92.5008V81H88.4058ZM90.3858 74.115H90.5658C90.7398 74.115 90.8808 74.166 90.9888 74.268C91.0968 74.37 91.1508 74.502 91.1508 74.664C91.1508 74.826 91.0968 74.955 90.9888 75.051C90.8808 75.147 90.7398 75.195 90.5658 75.195H90.3858C90.2118 75.195 90.0708 75.15 89.9628 75.06C89.8548 74.964 89.8008 74.832 89.8008 74.664C89.8008 74.502 89.8548 74.37 89.9628 74.268C90.0708 74.166 90.2118 74.115 90.3858 74.115ZM95.6473 81.09C95.0293 81.09 94.5433 80.922 94.1893 80.586C93.8413 80.25 93.6673 79.788 93.6673 79.2V77.85C93.6673 77.262 93.8413 76.8 94.1893 76.464C94.5433 76.128 95.0293 75.96 95.6473 75.96C96.2653 75.96 96.7483 76.128 97.0963 76.464C97.4503 76.8 97.6273 77.262 97.6273 77.85V78.759H94.4773V79.155C94.4773 79.533 94.5793 79.83 94.7833 80.046C94.9933 80.262 95.2813 80.37 95.6473 80.37C95.9173 80.37 96.1513 80.328 96.3493 80.244C96.5473 80.16 96.6943 80.037 96.7903 79.875H97.6003C97.4983 80.253 97.2703 80.55 96.9163 80.766C96.5683 80.982 96.1453 81.09 95.6473 81.09ZM96.8173 78.084V77.85C96.8173 77.478 96.7153 77.19 96.5113 76.986C96.3073 76.782 96.0193 76.68 95.6473 76.68C95.2753 76.68 94.9873 76.782 94.7833 76.986C94.5793 77.19 94.4773 77.478 94.4773 77.85V78.084H96.8173ZM99.1358 81V76.05H99.9008V76.905H99.9728C100.051 76.605 100.207 76.374 100.441 76.212C100.681 76.044 100.978 75.96 101.332 75.96C101.578 75.96 101.8 76.002 101.998 76.086C102.202 76.17 102.373 76.29 102.511 76.446C102.655 76.596 102.766 76.779 102.844 76.995C102.922 77.205 102.961 77.442 102.961 77.706V81H102.151V77.841C102.151 77.463 102.055 77.169 101.863 76.959C101.671 76.749 101.404 76.644 101.062 76.644C100.72 76.644 100.447 76.758 100.243 76.986C100.045 77.208 99.9458 77.511 99.9458 77.895V81H99.1358ZM106.512 81.09C106.206 81.09 105.93 81.045 105.684 80.955C105.444 80.865 105.237 80.736 105.063 80.568C104.895 80.4 104.763 80.196 104.667 79.956C104.577 79.716 104.532 79.449 104.532 79.155V77.895C104.532 77.601 104.577 77.334 104.667 77.094C104.763 76.854 104.895 76.65 105.063 76.482C105.237 76.314 105.444 76.185 105.684 76.095C105.93 76.005 106.206 75.96 106.512 75.96C107.058 75.96 107.505 76.11 107.853 76.41C108.207 76.704 108.42 77.109 108.492 77.625H107.682C107.64 77.337 107.511 77.109 107.295 76.941C107.085 76.767 106.824 76.68 106.512 76.68C106.152 76.68 105.867 76.788 105.657 77.004C105.447 77.22 105.342 77.517 105.342 77.895V79.155C105.342 79.533 105.444 79.83 105.648 80.046C105.858 80.262 106.146 80.37 106.512 80.37C106.824 80.37 107.085 80.286 107.295 80.118C107.511 79.944 107.64 79.713 107.682 79.425H108.492C108.414 79.947 108.198 80.355 107.844 80.649C107.496 80.943 107.052 81.09 106.512 81.09ZM111.837 81.09C111.219 81.09 110.733 80.922 110.379 80.586C110.031 80.25 109.857 79.788 109.857 79.2V77.85C109.857 77.262 110.031 76.8 110.379 76.464C110.733 76.128 111.219 75.96 111.837 75.96C112.455 75.96 112.938 76.128 113.286 76.464C113.64 76.8 113.817 77.262 113.817 77.85V78.759H110.667V79.155C110.667 79.533 110.769 79.83 110.973 80.046C111.183 80.262 111.471 80.37 111.837 80.37C112.107 80.37 112.341 80.328 112.539 80.244C112.737 80.16 112.884 80.037 112.98 79.875H113.79C113.688 80.253 113.46 80.55 113.106 80.766C112.758 80.982 112.335 81.09 111.837 81.09ZM113.007 78.084V77.85C113.007 77.478 112.905 77.19 112.701 76.986C112.497 76.782 112.209 76.68 111.837 76.68C111.465 76.68 111.177 76.782 110.973 76.986C110.769 77.19 110.667 77.478 110.667 77.85V78.084H113.007ZM117.908 79.641L116.738 82.44H116.018L116.738 79.641H117.908ZM126.883 76.05V76.905H126.955C127.033 76.605 127.192 76.374 127.432 76.212C127.672 76.044 127.975 75.96 128.341 75.96C128.593 75.96 128.821 76.005 129.025 76.095C129.229 76.185 129.403 76.314 129.547 76.482C129.691 76.644 129.802 76.845 129.88 77.085C129.964 77.325 130.006 77.595 130.006 77.895V79.155C130.006 79.455 129.964 79.725 129.88 79.965C129.802 80.205 129.691 80.409 129.547 80.577C129.403 80.739 129.229 80.865 129.025 80.955C128.821 81.045 128.593 81.09 128.341 81.09C127.975 81.09 127.672 81.009 127.432 80.847C127.192 80.679 127.033 80.445 126.955 80.145H126.883C126.889 80.247 126.898 80.349 126.91 80.451C126.916 80.541 126.919 80.634 126.919 80.73C126.925 80.826 126.928 80.916 126.928 81V82.485H126.118V76.05H126.883ZM126.928 79.155C126.928 79.533 127.027 79.833 127.225 80.055C127.429 80.277 127.699 80.388 128.035 80.388C128.395 80.388 128.677 80.277 128.881 80.055C129.091 79.833 129.196 79.533 129.196 79.155V77.895C129.196 77.505 129.094 77.202 128.89 76.986C128.686 76.77 128.401 76.662 128.035 76.662C127.699 76.662 127.429 76.773 127.225 76.995C127.027 77.217 126.928 77.517 126.928 77.895V79.155ZM131.731 76.05H132.496V76.905H132.568C132.646 76.611 132.808 76.38 133.054 76.212C133.3 76.044 133.603 75.96 133.963 75.96C134.485 75.96 134.893 76.125 135.187 76.455C135.487 76.779 135.637 77.226 135.637 77.796V78.075H134.827V77.895C134.827 77.505 134.728 77.205 134.53 76.995C134.338 76.779 134.062 76.671 133.702 76.671C133.348 76.671 133.066 76.782 132.856 77.004C132.646 77.22 132.541 77.517 132.541 77.895V81H131.731V76.05ZM137.649 79.155C137.649 79.533 137.751 79.83 137.955 80.046C138.165 80.262 138.453 80.37 138.819 80.37C139.179 80.37 139.464 80.262 139.674 80.046C139.884 79.83 139.989 79.533 139.989 79.155V77.895C139.989 77.517 139.884 77.22 139.674 77.004C139.464 76.788 139.179 76.68 138.819 76.68C138.459 76.68 138.174 76.788 137.964 77.004C137.754 77.22 137.649 77.517 137.649 77.895V79.155ZM136.839 77.895C136.839 77.595 136.884 77.328 136.974 77.094C137.07 76.854 137.202 76.65 137.37 76.482C137.544 76.314 137.751 76.185 137.991 76.095C138.237 76.005 138.513 75.96 138.819 75.96C139.431 75.96 139.914 76.131 140.268 76.473C140.622 76.815 140.799 77.286 140.799 77.886V79.155C140.799 79.455 140.754 79.725 140.664 79.965C140.574 80.205 140.442 80.409 140.268 80.577C140.1 80.739 139.893 80.865 139.647 80.955C139.401 81.045 139.125 81.09 138.819 81.09C138.513 81.09 138.237 81.045 137.991 80.955C137.751 80.865 137.544 80.736 137.37 80.568C137.202 80.4 137.07 80.196 136.974 79.956C136.884 79.716 136.839 79.449 136.839 79.155V77.895ZM142.173 77.85C142.173 77.562 142.212 77.301 142.29 77.067C142.368 76.833 142.479 76.635 142.623 76.473C142.773 76.311 142.953 76.185 143.163 76.095C143.373 76.005 143.607 75.96 143.865 75.96C144.225 75.96 144.531 76.047 144.783 76.221C145.035 76.389 145.206 76.632 145.296 76.95H145.359V76.05H146.124V80.64C146.124 81.222 145.953 81.675 145.611 81.999C145.269 82.323 144.789 82.485 144.171 82.485H142.956V81.747H144.171C144.531 81.747 144.81 81.651 145.008 81.459C145.212 81.267 145.314 80.994 145.314 80.64V80.46L145.35 79.56H145.296C145.206 79.878 145.035 80.124 144.783 80.298C144.531 80.466 144.225 80.55 143.865 80.55C143.607 80.55 143.373 80.505 143.163 80.415C142.959 80.325 142.782 80.199 142.632 80.037C142.488 79.875 142.374 79.677 142.29 79.443C142.212 79.209 142.173 78.948 142.173 78.66V77.85ZM143.001 78.66C143.001 79.032 143.103 79.323 143.307 79.533C143.517 79.743 143.802 79.848 144.162 79.848C144.522 79.848 144.804 79.743 145.008 79.533C145.212 79.323 145.314 79.032 145.314 78.66V77.85C145.314 77.478 145.212 77.187 145.008 76.977C144.804 76.767 144.522 76.662 144.162 76.662C143.802 76.662 143.517 76.767 143.307 76.977C143.103 77.187 143.001 77.478 143.001 77.85V78.66ZM147.92 76.05H148.685V76.905H148.757C148.835 76.611 148.997 76.38 149.243 76.212C149.489 76.044 149.792 75.96 150.152 75.96C150.674 75.96 151.082 76.125 151.376 76.455C151.676 76.779 151.826 77.226 151.826 77.796V78.075H151.016V77.895C151.016 77.505 150.917 77.205 150.719 76.995C150.527 76.779 150.251 76.671 149.891 76.671C149.537 76.671 149.255 76.782 149.045 77.004C148.835 77.22 148.73 77.517 148.73 77.895V81H147.92V76.05ZM152.876 79.56C152.876 79.326 152.915 79.116 152.993 78.93C153.077 78.738 153.194 78.576 153.344 78.444C153.5 78.312 153.686 78.21 153.902 78.138C154.118 78.066 154.361 78.03 154.631 78.03H156.107V77.625C156.107 77.319 156.005 77.082 155.801 76.914C155.603 76.74 155.315 76.653 154.937 76.653C154.661 76.653 154.424 76.704 154.226 76.806C154.034 76.908 153.905 77.049 153.839 77.229H153.029C153.113 76.839 153.326 76.53 153.668 76.302C154.016 76.074 154.445 75.96 154.955 75.96C155.567 75.96 156.047 76.104 156.395 76.392C156.743 76.674 156.917 77.07 156.917 77.58V81H156.179V80.055H156.107C156.029 80.373 155.846 80.625 155.558 80.811C155.27 80.997 154.919 81.09 154.505 81.09C154.007 81.09 153.611 80.952 153.317 80.676C153.023 80.4 152.876 80.028 152.876 79.56ZM154.685 80.424C154.889 80.424 155.078 80.397 155.252 80.343C155.426 80.289 155.576 80.214 155.702 80.118C155.828 80.016 155.927 79.899 155.999 79.767C156.071 79.635 156.107 79.491 156.107 79.335V78.66H154.649C154.349 78.66 154.112 78.738 153.938 78.894C153.77 79.05 153.686 79.266 153.686 79.542C153.686 79.818 153.773 80.034 153.947 80.19C154.121 80.346 154.367 80.424 154.685 80.424ZM158.263 76.05H158.902V76.779H158.965C158.989 76.515 159.073 76.314 159.217 76.176C159.361 76.032 159.553 75.96 159.793 75.96C160.033 75.96 160.231 76.032 160.387 76.176C160.543 76.314 160.651 76.515 160.711 76.779H160.756C160.78 76.515 160.864 76.314 161.008 76.176C161.152 76.032 161.344 75.96 161.584 75.96C161.89 75.96 162.127 76.074 162.295 76.302C162.463 76.524 162.547 76.833 162.547 77.229V81H161.845V77.229C161.845 77.019 161.797 76.86 161.701 76.752C161.611 76.638 161.479 76.581 161.305 76.581C160.939 76.581 160.756 76.812 160.756 77.274V81H160.054V77.229C160.054 77.055 160.012 76.905 159.928 76.779C159.85 76.647 159.712 76.581 159.514 76.581C159.334 76.581 159.193 76.647 159.091 76.779C159.007 76.899 158.965 77.064 158.965 77.274V81H158.263V76.05ZM163.66 76.05H164.299V76.779H164.362C164.386 76.515 164.47 76.314 164.614 76.176C164.758 76.032 164.95 75.96 165.19 75.96C165.43 75.96 165.628 76.032 165.784 76.176C165.94 76.314 166.048 76.515 166.108 76.779H166.153C166.177 76.515 166.261 76.314 166.405 76.176C166.549 76.032 166.741 75.96 166.981 75.96C167.287 75.96 167.524 76.074 167.692 76.302C167.86 76.524 167.944 76.833 167.944 77.229V81H167.242V77.229C167.242 77.019 167.194 76.86 167.098 76.752C167.008 76.638 166.876 76.581 166.702 76.581C166.336 76.581 166.153 76.812 166.153 77.274V81H165.451V77.229C165.451 77.055 165.409 76.905 165.325 76.779C165.247 76.647 165.109 76.581 164.911 76.581C164.731 76.581 164.59 76.647 164.488 76.779C164.404 76.899 164.362 77.064 164.362 77.274V81H163.66V76.05ZM169.353 81V80.262H171.153V76.788H169.578V76.05H171.963V80.262H173.448V81H169.353ZM171.333 74.115H171.513C171.687 74.115 171.828 74.166 171.936 74.268C172.044 74.37 172.098 74.502 172.098 74.664C172.098 74.826 172.044 74.955 171.936 75.051C171.828 75.147 171.687 75.195 171.513 75.195H171.333C171.159 75.195 171.018 75.15 170.91 75.06C170.802 74.964 170.748 74.832 170.748 74.664C170.748 74.502 170.802 74.37 170.91 74.268C171.018 74.166 171.159 74.115 171.333 74.115ZM174.687 81V76.05H175.452V76.905H175.524C175.602 76.605 175.758 76.374 175.992 76.212C176.232 76.044 176.529 75.96 176.883 75.96C177.129 75.96 177.351 76.002 177.549 76.086C177.753 76.17 177.924 76.29 178.062 76.446C178.206 76.596 178.317 76.779 178.395 76.995C178.473 77.205 178.512 77.442 178.512 77.706V81H177.702V77.841C177.702 77.463 177.606 77.169 177.414 76.959C177.222 76.749 176.955 76.644 176.613 76.644C176.271 76.644 175.998 76.758 175.794 76.986C175.596 77.208 175.497 77.511 175.497 77.895V81H174.687ZM179.948 77.85C179.948 77.562 179.987 77.301 180.065 77.067C180.143 76.833 180.254 76.635 180.398 76.473C180.548 76.311 180.728 76.185 180.938 76.095C181.148 76.005 181.382 75.96 181.64 75.96C182 75.96 182.306 76.047 182.558 76.221C182.81 76.389 182.981 76.632 183.071 76.95H183.134V76.05H183.899V80.64C183.899 81.222 183.728 81.675 183.386 81.999C183.044 82.323 182.564 82.485 181.946 82.485H180.731V81.747H181.946C182.306 81.747 182.585 81.651 182.783 81.459C182.987 81.267 183.089 80.994 183.089 80.64V80.46L183.125 79.56H183.071C182.981 79.878 182.81 80.124 182.558 80.298C182.306 80.466 182 80.55 181.64 80.55C181.382 80.55 181.148 80.505 180.938 80.415C180.734 80.325 180.557 80.199 180.407 80.037C180.263 79.875 180.149 79.677 180.065 79.443C179.987 79.209 179.948 78.948 179.948 78.66V77.85ZM180.776 78.66C180.776 79.032 180.878 79.323 181.082 79.533C181.292 79.743 181.577 79.848 181.937 79.848C182.297 79.848 182.579 79.743 182.783 79.533C182.987 79.323 183.089 79.032 183.089 78.66V77.85C183.089 77.478 182.987 77.187 182.783 76.977C182.579 76.767 182.297 76.662 181.937 76.662C181.577 76.662 181.292 76.767 181.082 76.977C180.878 77.187 180.776 77.478 180.776 77.85V78.66ZM188.063 79.641L186.893 82.44H186.173L186.893 79.641H188.063ZM196.047 79.56C196.047 79.326 196.086 79.116 196.164 78.93C196.248 78.738 196.365 78.576 196.515 78.444C196.671 78.312 196.857 78.21 197.073 78.138C197.289 78.066 197.532 78.03 197.802 78.03H199.278V77.625C199.278 77.319 199.176 77.082 198.972 76.914C198.774 76.74 198.486 76.653 198.108 76.653C197.832 76.653 197.595 76.704 197.397 76.806C197.205 76.908 197.076 77.049 197.01 77.229H196.2C196.284 76.839 196.497 76.53 196.839 76.302C197.187 76.074 197.616 75.96 198.126 75.96C198.738 75.96 199.218 76.104 199.566 76.392C199.914 76.674 200.088 77.07 200.088 77.58V81H199.35V80.055H199.278C199.2 80.373 199.017 80.625 198.729 80.811C198.441 80.997 198.09 81.09 197.676 81.09C197.178 81.09 196.782 80.952 196.488 80.676C196.194 80.4 196.047 80.028 196.047 79.56ZM197.856 80.424C198.06 80.424 198.249 80.397 198.423 80.343C198.597 80.289 198.747 80.214 198.873 80.118C198.999 80.016 199.098 79.899 199.17 79.767C199.242 79.635 199.278 79.491 199.278 79.335V78.66H197.82C197.52 78.66 197.283 78.738 197.109 78.894C196.941 79.05 196.857 79.266 196.857 79.542C196.857 79.818 196.944 80.034 197.118 80.19C197.292 80.346 197.538 80.424 197.856 80.424ZM201.687 76.05H202.497V79.254C202.497 80.004 202.854 80.379 203.568 80.379C204.294 80.379 204.657 80.004 204.657 79.254V76.05H205.467V79.254C205.467 79.842 205.302 80.295 204.972 80.613C204.648 80.931 204.18 81.09 203.568 81.09C202.968 81.09 202.503 80.931 202.173 80.613C201.849 80.289 201.687 79.836 201.687 79.254V76.05ZM206.813 76.05H208.253V74.52H209.063V76.05H210.998V76.788H209.063V79.722C209.063 79.89 209.114 80.022 209.216 80.118C209.324 80.214 209.468 80.262 209.648 80.262H210.908V81H209.648C209.222 81 208.883 80.883 208.631 80.649C208.379 80.415 208.253 80.106 208.253 79.722V76.788H206.813V76.05ZM213.2 79.155C213.2 79.533 213.302 79.83 213.506 80.046C213.716 80.262 214.004 80.37 214.37 80.37C214.73 80.37 215.015 80.262 215.225 80.046C215.435 79.83 215.54 79.533 215.54 79.155V77.895C215.54 77.517 215.435 77.22 215.225 77.004C215.015 76.788 214.73 76.68 214.37 76.68C214.01 76.68 213.725 76.788 213.515 77.004C213.305 77.22 213.2 77.517 213.2 77.895V79.155ZM212.39 77.895C212.39 77.595 212.435 77.328 212.525 77.094C212.621 76.854 212.753 76.65 212.921 76.482C213.095 76.314 213.302 76.185 213.542 76.095C213.788 76.005 214.064 75.96 214.37 75.96C214.982 75.96 215.465 76.131 215.819 76.473C216.173 76.815 216.35 77.286 216.35 77.886V79.155C216.35 79.455 216.305 79.725 216.215 79.965C216.125 80.205 215.993 80.409 215.819 80.577C215.651 80.739 215.444 80.865 215.198 80.955C214.952 81.045 214.676 81.09 214.37 81.09C214.064 81.09 213.788 81.045 213.542 80.955C213.302 80.865 213.095 80.736 212.921 80.568C212.753 80.4 212.621 80.196 212.525 79.956C212.435 79.716 212.39 79.449 212.39 79.155V77.895ZM217.624 76.05H218.263V76.779H218.326C218.35 76.515 218.434 76.314 218.578 76.176C218.722 76.032 218.914 75.96 219.154 75.96C219.394 75.96 219.592 76.032 219.748 76.176C219.904 76.314 220.012 76.515 220.072 76.779H220.117C220.141 76.515 220.225 76.314 220.369 76.176C220.513 76.032 220.705 75.96 220.945 75.96C221.251 75.96 221.488 76.074 221.656 76.302C221.824 76.524 221.908 76.833 221.908 77.229V81H221.206V77.229C221.206 77.019 221.158 76.86 221.062 76.752C220.972 76.638 220.84 76.581 220.666 76.581C220.3 76.581 220.117 76.812 220.117 77.274V81H219.415V77.229C219.415 77.055 219.373 76.905 219.289 76.779C219.211 76.647 219.073 76.581 218.875 76.581C218.695 76.581 218.554 76.647 218.452 76.779C218.368 76.899 218.326 77.064 218.326 77.274V81H217.624V76.05ZM223.03 79.56C223.03 79.326 223.069 79.116 223.147 78.93C223.231 78.738 223.348 78.576 223.498 78.444C223.654 78.312 223.84 78.21 224.056 78.138C224.272 78.066 224.515 78.03 224.785 78.03H226.261V77.625C226.261 77.319 226.159 77.082 225.955 76.914C225.757 76.74 225.469 76.653 225.091 76.653C224.815 76.653 224.578 76.704 224.38 76.806C224.188 76.908 224.059 77.049 223.993 77.229H223.183C223.267 76.839 223.48 76.53 223.822 76.302C224.17 76.074 224.599 75.96 225.109 75.96C225.721 75.96 226.201 76.104 226.549 76.392C226.897 76.674 227.071 77.07 227.071 77.58V81H226.333V80.055H226.261C226.183 80.373 226 80.625 225.712 80.811C225.424 80.997 225.073 81.09 224.659 81.09C224.161 81.09 223.765 80.952 223.471 80.676C223.177 80.4 223.03 80.028 223.03 79.56ZM224.839 80.424C225.043 80.424 225.232 80.397 225.406 80.343C225.58 80.289 225.73 80.214 225.856 80.118C225.982 80.016 226.081 79.899 226.153 79.767C226.225 79.635 226.261 79.491 226.261 79.335V78.66H224.803C224.503 78.66 224.266 78.738 224.092 78.894C223.924 79.05 223.84 79.266 223.84 79.542C223.84 79.818 223.927 80.034 224.101 80.19C224.275 80.346 224.521 80.424 224.839 80.424ZM228.399 76.05H229.839V74.52H230.649V76.05H232.584V76.788H230.649V79.722C230.649 79.89 230.7 80.022 230.802 80.118C230.91 80.214 231.054 80.262 231.234 80.262H232.494V81H231.234C230.808 81 230.469 80.883 230.217 80.649C229.965 80.415 229.839 80.106 229.839 79.722V76.788H228.399V76.05ZM234.111 81V80.262H235.911V76.788H234.336V76.05H236.721V80.262H238.206V81H234.111ZM236.091 74.115H236.271C236.445 74.115 236.586 74.166 236.694 74.268C236.802 74.37 236.856 74.502 236.856 74.664C236.856 74.826 236.802 74.955 236.694 75.051C236.586 75.147 236.445 75.195 236.271 75.195H236.091C235.917 75.195 235.776 75.15 235.668 75.06C235.56 74.964 235.506 74.832 235.506 74.664C235.506 74.502 235.56 74.37 235.668 74.268C235.776 74.166 235.917 74.115 236.091 74.115ZM240.182 79.155C240.182 79.533 240.284 79.83 240.488 80.046C240.698 80.262 240.986 80.37 241.352 80.37C241.712 80.37 241.997 80.262 242.207 80.046C242.417 79.83 242.522 79.533 242.522 79.155V77.895C242.522 77.517 242.417 77.22 242.207 77.004C241.997 76.788 241.712 76.68 241.352 76.68C240.992 76.68 240.707 76.788 240.497 77.004C240.287 77.22 240.182 77.517 240.182 77.895V79.155ZM239.372 77.895C239.372 77.595 239.417 77.328 239.507 77.094C239.603 76.854 239.735 76.65 239.903 76.482C240.077 76.314 240.284 76.185 240.524 76.095C240.77 76.005 241.046 75.96 241.352 75.96C241.964 75.96 242.447 76.131 242.801 76.473C243.155 76.815 243.332 77.286 243.332 77.886V79.155C243.332 79.455 243.287 79.725 243.197 79.965C243.107 80.205 242.975 80.409 242.801 80.577C242.633 80.739 242.426 80.865 242.18 80.955C241.934 81.045 241.658 81.09 241.352 81.09C241.046 81.09 240.77 81.045 240.524 80.955C240.284 80.865 240.077 80.736 239.903 80.568C239.735 80.4 239.603 80.196 239.507 79.956C239.417 79.716 239.372 79.449 239.372 79.155V77.895ZM244.841 81V76.05H245.606V76.905H245.678C245.756 76.605 245.912 76.374 246.146 76.212C246.386 76.044 246.683 75.96 247.037 75.96C247.283 75.96 247.505 76.002 247.703 76.086C247.907 76.17 248.078 76.29 248.216 76.446C248.36 76.596 248.471 76.779 248.549 76.995C248.627 77.205 248.666 77.442 248.666 77.706V81H247.856V77.841C247.856 77.463 247.76 77.169 247.568 76.959C247.376 76.749 247.109 76.644 246.767 76.644C246.425 76.644 246.152 76.758 245.948 76.986C245.75 77.208 245.651 77.511 245.651 77.895V81H244.841ZM252.82 79.641L251.65 82.44H250.93L251.65 79.641H252.82ZM260.805 79.56C260.805 79.326 260.844 79.116 260.922 78.93C261.006 78.738 261.123 78.576 261.273 78.444C261.429 78.312 261.615 78.21 261.831 78.138C262.047 78.066 262.29 78.03 262.56 78.03H264.036V77.625C264.036 77.319 263.934 77.082 263.73 76.914C263.532 76.74 263.244 76.653 262.866 76.653C262.59 76.653 262.353 76.704 262.155 76.806C261.963 76.908 261.834 77.049 261.768 77.229H260.958C261.042 76.839 261.255 76.53 261.597 76.302C261.945 76.074 262.374 75.96 262.884 75.96C263.496 75.96 263.976 76.104 264.324 76.392C264.672 76.674 264.846 77.07 264.846 77.58V81H264.108V80.055H264.036C263.958 80.373 263.775 80.625 263.487 80.811C263.199 80.997 262.848 81.09 262.434 81.09C261.936 81.09 261.54 80.952 261.246 80.676C260.952 80.4 260.805 80.028 260.805 79.56ZM262.614 80.424C262.818 80.424 263.007 80.397 263.181 80.343C263.355 80.289 263.505 80.214 263.631 80.118C263.757 80.016 263.856 79.899 263.928 79.767C264 79.635 264.036 79.491 264.036 79.335V78.66H262.578C262.278 78.66 262.041 78.738 261.867 78.894C261.699 79.05 261.615 79.266 261.615 79.542C261.615 79.818 261.702 80.034 261.876 80.19C262.05 80.346 262.296 80.424 262.614 80.424ZM266.427 81V76.05H267.192V76.905H267.264C267.342 76.605 267.498 76.374 267.732 76.212C267.972 76.044 268.269 75.96 268.623 75.96C268.869 75.96 269.091 76.002 269.289 76.086C269.493 76.17 269.664 76.29 269.802 76.446C269.946 76.596 270.057 76.779 270.135 76.995C270.213 77.205 270.252 77.442 270.252 77.706V81H269.442V77.841C269.442 77.463 269.346 77.169 269.154 76.959C268.962 76.749 268.695 76.644 268.353 76.644C268.011 76.644 267.738 76.758 267.534 76.986C267.336 77.208 267.237 77.511 267.237 77.895V81H266.427ZM271.751 77.895C271.751 77.595 271.79 77.325 271.868 77.085C271.952 76.845 272.066 76.644 272.21 76.482C272.354 76.314 272.528 76.185 272.732 76.095C272.936 76.005 273.164 75.96 273.416 75.96C273.782 75.96 274.085 76.044 274.325 76.212C274.565 76.374 274.724 76.605 274.802 76.905H274.874C274.868 76.803 274.862 76.701 274.856 76.599C274.844 76.509 274.835 76.416 274.829 76.32C274.829 76.218 274.829 76.128 274.829 76.05V74.43H275.639V81H274.874V80.145H274.802C274.724 80.445 274.565 80.679 274.325 80.847C274.085 81.009 273.782 81.09 273.416 81.09C273.164 81.09 272.936 81.045 272.732 80.955C272.528 80.865 272.354 80.739 272.21 80.577C272.066 80.409 271.952 80.205 271.868 79.965C271.79 79.725 271.751 79.455 271.751 79.155V77.895ZM273.722 80.388C274.058 80.388 274.325 80.277 274.523 80.055C274.727 79.833 274.829 79.533 274.829 79.155V77.895C274.829 77.517 274.727 77.217 274.523 76.995C274.325 76.773 274.058 76.662 273.722 76.662C273.356 76.662 273.071 76.77 272.867 76.986C272.663 77.202 272.561 77.505 272.561 77.895V79.155C272.561 79.533 272.663 79.833 272.867 80.055C273.077 80.277 273.362 80.388 273.722 80.388ZM284.389 81.09C283.867 81.09 283.435 80.973 283.093 80.739C282.757 80.499 282.565 80.181 282.517 79.785H283.372C283.408 79.959 283.519 80.1 283.705 80.208C283.891 80.316 284.119 80.37 284.389 80.37H284.641C284.965 80.37 285.217 80.304 285.397 80.172C285.577 80.034 285.667 79.851 285.667 79.623C285.667 79.233 285.391 78.996 284.839 78.912L284.092 78.804C283.606 78.732 283.243 78.579 283.003 78.345C282.763 78.111 282.643 77.784 282.643 77.364C282.643 76.92 282.799 76.575 283.111 76.329C283.429 76.083 283.87 75.96 284.434 75.96H284.686C284.926 75.96 285.148 75.99 285.352 76.05C285.556 76.11 285.736 76.197 285.892 76.311C286.048 76.419 286.174 76.551 286.27 76.707C286.372 76.857 286.438 77.025 286.468 77.211H285.613C285.577 77.055 285.475 76.929 285.307 76.833C285.139 76.731 284.932 76.68 284.686 76.68H284.434C284.128 76.68 283.888 76.74 283.714 76.86C283.546 76.98 283.462 77.16 283.462 77.4C283.462 77.592 283.519 77.739 283.633 77.841C283.753 77.937 283.945 78.003 284.209 78.039L284.956 78.147C285.49 78.225 285.877 78.381 286.117 78.615C286.363 78.849 286.486 79.182 286.486 79.614C286.486 80.076 286.324 80.439 286 80.703C285.682 80.961 285.229 81.09 284.641 81.09H284.389ZM289.921 81.09C289.303 81.09 288.817 80.922 288.463 80.586C288.115 80.25 287.941 79.788 287.941 79.2V77.85C287.941 77.262 288.115 76.8 288.463 76.464C288.817 76.128 289.303 75.96 289.921 75.96C290.539 75.96 291.022 76.128 291.37 76.464C291.724 76.8 291.901 77.262 291.901 77.85V78.759H288.751V79.155C288.751 79.533 288.853 79.83 289.057 80.046C289.267 80.262 289.555 80.37 289.921 80.37C290.191 80.37 290.425 80.328 290.623 80.244C290.821 80.16 290.968 80.037 291.064 79.875H291.874C291.772 80.253 291.544 80.55 291.19 80.766C290.842 80.982 290.419 81.09 289.921 81.09ZM291.091 78.084V77.85C291.091 77.478 290.989 77.19 290.785 76.986C290.581 76.782 290.293 76.68 289.921 76.68C289.549 76.68 289.261 76.782 289.057 76.986C288.853 77.19 288.751 77.478 288.751 77.85V78.084H291.091ZM295.389 81.09C295.083 81.09 294.807 81.045 294.561 80.955C294.321 80.865 294.114 80.736 293.94 80.568C293.772 80.4 293.64 80.196 293.544 79.956C293.454 79.716 293.409 79.449 293.409 79.155V77.895C293.409 77.601 293.454 77.334 293.544 77.094C293.64 76.854 293.772 76.65 293.94 76.482C294.114 76.314 294.321 76.185 294.561 76.095C294.807 76.005 295.083 75.96 295.389 75.96C295.935 75.96 296.382 76.11 296.73 76.41C297.084 76.704 297.297 77.109 297.369 77.625H296.559C296.517 77.337 296.388 77.109 296.172 76.941C295.962 76.767 295.701 76.68 295.389 76.68C295.029 76.68 294.744 76.788 294.534 77.004C294.324 77.22 294.219 77.517 294.219 77.895V79.155C294.219 79.533 294.321 79.83 294.525 80.046C294.735 80.262 295.023 80.37 295.389 80.37C295.701 80.37 295.962 80.286 296.172 80.118C296.388 79.944 296.517 79.713 296.559 79.425H297.369C297.291 79.947 297.075 80.355 296.721 80.649C296.373 80.943 295.929 81.09 295.389 81.09ZM298.824 76.05H299.634V79.254C299.634 80.004 299.991 80.379 300.705 80.379C301.431 80.379 301.794 80.004 301.794 79.254V76.05H302.604V79.254C302.604 79.842 302.439 80.295 302.109 80.613C301.785 80.931 301.317 81.09 300.705 81.09C300.105 81.09 299.64 80.931 299.31 80.613C298.986 80.289 298.824 79.836 298.824 79.254V76.05ZM304.418 76.05H305.183V76.905H305.255C305.333 76.611 305.495 76.38 305.741 76.212C305.987 76.044 306.29 75.96 306.65 75.96C307.172 75.96 307.58 76.125 307.874 76.455C308.174 76.779 308.324 77.226 308.324 77.796V78.075H307.514V77.895C307.514 77.505 307.415 77.205 307.217 76.995C307.025 76.779 306.749 76.671 306.389 76.671C306.035 76.671 305.753 76.782 305.543 77.004C305.333 77.22 305.228 77.517 305.228 77.895V81H304.418V76.05ZM309.662 81V80.262H311.462V76.788H309.887V76.05H312.272V80.262H313.757V81H309.662ZM311.642 74.115H311.822C311.996 74.115 312.137 74.166 312.245 74.268C312.353 74.37 312.407 74.502 312.407 74.664C312.407 74.826 312.353 74.955 312.245 75.051C312.137 75.147 311.996 75.195 311.822 75.195H311.642C311.468 75.195 311.327 75.15 311.219 75.06C311.111 74.964 311.057 74.832 311.057 74.664C311.057 74.502 311.111 74.37 311.219 74.268C311.327 74.166 311.468 74.115 311.642 74.115ZM314.743 76.05H316.183V74.52H316.993V76.05H318.928V76.788H316.993V79.722C316.993 79.89 317.044 80.022 317.146 80.118C317.254 80.214 317.398 80.262 317.578 80.262H318.838V81H317.578C317.152 81 316.813 80.883 316.561 80.649C316.309 80.415 316.183 80.106 316.183 79.722V76.788H314.743V76.05ZM320.95 76.05L322.084 78.894C322.138 79.032 322.18 79.161 322.21 79.281C322.246 79.401 322.273 79.506 322.291 79.596C322.315 79.71 322.33 79.812 322.336 79.902H322.399C322.405 79.812 322.42 79.713 322.444 79.605C322.462 79.509 322.486 79.401 322.516 79.281C322.546 79.161 322.585 79.032 322.633 78.894L323.677 76.05H324.55L322.147 82.485H321.283L321.967 80.64L320.05 76.05H320.95ZM326.922 80.289C326.922 80.055 326.991 79.869 327.129 79.731C327.273 79.587 327.462 79.515 327.696 79.515C327.93 79.515 328.116 79.587 328.254 79.731C328.398 79.869 328.47 80.055 328.47 80.289C328.47 80.529 328.398 80.724 328.254 80.874C328.116 81.018 327.93 81.09 327.696 81.09C327.462 81.09 327.273 81.018 327.129 80.874C326.991 80.724 326.922 80.529 326.922 80.289Z" fill="black"/>
<path d="M36.2859 49.74C36.5619 49.74 36.7839 49.662 36.9519 49.506C37.1199 49.35 37.2039 49.143 37.2039 48.885V46.626C37.2039 46.374 37.1199 46.17 36.9519 46.014C36.7839 45.858 36.5619 45.78 36.2859 45.78H35.5029V49.74H36.2859ZM34.1529 51V44.52H36.2859C36.6279 44.52 36.9369 44.571 37.2129 44.673C37.4949 44.769 37.7349 44.91 37.9329 45.096C38.1309 45.282 38.2839 45.504 38.3919 45.762C38.4999 46.02 38.5539 46.308 38.5539 46.626V48.885C38.5539 49.203 38.4999 49.494 38.3919 49.758C38.2839 50.016 38.1309 50.238 37.9329 50.424C37.7349 50.604 37.4949 50.745 37.2129 50.847C36.9369 50.949 36.6279 51 36.2859 51H34.1529ZM39.5674 46.05H40.9174V49.065C40.9174 49.635 41.1724 49.92 41.6824 49.92C42.1924 49.92 42.4474 49.635 42.4474 49.065V46.05H43.7974V49.074C43.7974 49.71 43.6084 50.205 43.2304 50.559C42.8584 50.913 42.3424 51.09 41.6824 51.09C41.0104 51.09 40.4884 50.913 40.1164 50.559C39.7504 50.199 39.5674 49.704 39.5674 49.074V46.05ZM44.7659 49.65C44.7659 49.146 44.9489 48.75 45.3149 48.462C45.6809 48.168 46.1789 48.021 46.8089 48.021H47.8799V47.58C47.8799 47.406 47.8049 47.265 47.6549 47.157C47.5109 47.049 47.3129 46.995 47.0609 46.995C46.8389 46.995 46.6529 47.037 46.5029 47.121C46.3589 47.199 46.2659 47.307 46.2239 47.445H44.9189C44.9549 47.217 45.0299 47.013 45.1439 46.833C45.2639 46.647 45.4169 46.491 45.6029 46.365C45.7889 46.233 46.0049 46.134 46.2509 46.068C46.4969 45.996 46.7669 45.96 47.0609 45.96C47.3849 45.96 47.6789 45.999 47.9429 46.077C48.2129 46.155 48.4409 46.266 48.6269 46.41C48.8189 46.548 48.9659 46.716 49.0679 46.914C49.1759 47.112 49.2299 47.334 49.2299 47.58V51H47.9429V50.01H47.8619C47.8199 50.346 47.6609 50.61 47.3849 50.802C47.1149 50.994 46.7699 51.09 46.3499 51.09C45.8639 51.09 45.4769 50.961 45.1889 50.703C44.9069 50.445 44.7659 50.094 44.7659 49.65ZM46.8989 50.055C47.1869 50.055 47.4209 49.989 47.6009 49.857C47.7869 49.719 47.8799 49.545 47.8799 49.335V48.831H46.8089C46.5989 48.831 46.4309 48.885 46.3049 48.993C46.1789 49.095 46.1159 49.242 46.1159 49.434C46.1159 49.626 46.1819 49.779 46.3139 49.893C46.4519 50.001 46.6469 50.055 46.8989 50.055ZM50.5134 46.05H51.7914V46.905H51.8814C51.9294 46.599 52.0704 46.365 52.3044 46.203C52.5384 46.041 52.8474 45.96 53.2314 45.96C53.7774 45.96 54.2004 46.128 54.5004 46.464C54.8004 46.794 54.9504 47.256 54.9504 47.85V48.255H53.5104V47.94C53.5104 47.67 53.4324 47.46 53.2764 47.31C53.1204 47.16 52.9074 47.085 52.6374 47.085C52.3974 47.085 52.2084 47.163 52.0704 47.319C51.9324 47.469 51.8634 47.676 51.8634 47.94V51H50.5134V46.05ZM55.4869 46.05H56.7919V44.52H58.1419V46.05H59.9869V47.265H58.1419V49.29C58.1419 49.446 58.1839 49.569 58.2679 49.659C58.3579 49.743 58.4809 49.785 58.6369 49.785H59.8969V51H58.5019C57.9679 51 57.5479 50.85 57.2419 50.55C56.9419 50.244 56.7919 49.824 56.7919 49.29V47.265H55.4869V46.05ZM63.2684 51.09C62.9264 51.09 62.6144 51.042 62.3324 50.946C62.0564 50.85 61.8194 50.718 61.6214 50.55C61.4234 50.376 61.2704 50.166 61.1624 49.92C61.0544 49.674 61.0004 49.404 61.0004 49.11V47.931C61.0004 47.631 61.0544 47.361 61.1624 47.121C61.2704 46.881 61.4234 46.674 61.6214 46.5C61.8194 46.326 62.0564 46.194 62.3324 46.104C62.6144 46.008 62.9264 45.96 63.2684 45.96C63.6044 45.96 63.9104 46.008 64.1864 46.104C64.4624 46.2 64.6994 46.335 64.8974 46.509C65.0954 46.683 65.2484 46.893 65.3564 47.139C65.4644 47.379 65.5184 47.646 65.5184 47.94V48.84H62.3324V49.11C62.3324 49.41 62.4134 49.644 62.5754 49.812C62.7374 49.974 62.9684 50.055 63.2684 50.055C63.4904 50.055 63.6794 50.019 63.8354 49.947C63.9914 49.875 64.0964 49.776 64.1504 49.65H65.4734C65.4194 49.866 65.3234 50.064 65.1854 50.244C65.0534 50.418 64.8914 50.568 64.6994 50.694C64.5074 50.82 64.2884 50.919 64.0424 50.991C63.8024 51.057 63.5444 51.09 63.2684 51.09ZM64.2134 48.03V47.94C64.2134 47.64 64.1294 47.409 63.9614 47.247C63.7994 47.079 63.5684 46.995 63.2684 46.995C62.9744 46.995 62.7434 47.079 62.5754 47.247C62.4134 47.409 62.3324 47.637 62.3324 47.931V48.03H64.2134Z" fill="#CD2653"/>
</svg>
