<svg width="385" height="116" viewBox="0 0 385 116" fill="none" xmlns="http://www.w3.org/2000/svg">
<rect width="385" height="116" fill="#F4EFE1"/>
<path d="M14.16 18.36V22.008H17.04V18.36H18.12V27H17.04V22.992H14.16V27H13.08V18.36H14.16ZM22.7953 27.12C21.9713 27.12 21.3233 26.896 20.8513 26.448C20.3873 26 20.1553 25.384 20.1553 24.6V22.8C20.1553 22.016 20.3873 21.4 20.8513 20.952C21.3233 20.504 21.9713 20.28 22.7953 20.28C23.6193 20.28 24.2633 20.504 24.7273 20.952C25.1993 21.4 25.4353 22.016 25.4353 22.8V24.012H21.2353V24.54C21.2353 25.044 21.3713 25.44 21.6433 25.728C21.9233 26.016 22.3073 26.16 22.7953 26.16C23.1553 26.16 23.4673 26.104 23.7313 25.992C23.9953 25.88 24.1913 25.716 24.3193 25.5H25.3993C25.2633 26.004 24.9593 26.4 24.4873 26.688C24.0233 26.976 23.4593 27.12 22.7953 27.12ZM24.3553 23.112V22.8C24.3553 22.304 24.2193 21.92 23.9473 21.648C23.6753 21.376 23.2913 21.24 22.7953 21.24C22.2993 21.24 21.9153 21.376 21.6433 21.648C21.3713 21.92 21.2353 22.304 21.2353 22.8V23.112H24.3553ZM28.1906 20.4L29.7026 24.192C29.7746 24.376 29.8306 24.548 29.8706 24.708C29.9186 24.868 29.9546 25.008 29.9786 25.128C30.0106 25.28 30.0306 25.416 30.0386 25.536H30.1226C30.1306 25.416 30.1506 25.284 30.1826 25.14C30.2066 25.012 30.2386 24.868 30.2786 24.708C30.3186 24.548 30.3706 24.376 30.4346 24.192L31.8266 20.4H32.9906L29.7866 28.98H28.6346L29.5466 26.52L26.9906 20.4H28.1906ZM41.5013 20.4H43.4213V18.36H44.5013V20.4H47.0813V21.384H44.5013V25.296C44.5013 25.52 44.5693 25.696 44.7053 25.824C44.8493 25.952 45.0413 26.016 45.2813 26.016H46.9613V27H45.2813C44.7133 27 44.2613 26.844 43.9253 26.532C43.5893 26.22 43.4213 25.808 43.4213 25.296V21.384H41.5013V20.4ZM49.0326 18.24H50.1126V20.4C50.1126 20.512 50.1086 20.636 50.1006 20.772C50.1006 20.9 50.0966 21.02 50.0886 21.132C50.0726 21.268 50.0606 21.404 50.0526 21.54H50.1486C50.2526 21.14 50.4606 20.832 50.7726 20.616C51.0926 20.392 51.4886 20.28 51.9606 20.28C52.2886 20.28 52.5846 20.336 52.8486 20.448C53.1206 20.56 53.3486 20.72 53.5326 20.928C53.7246 21.128 53.8726 21.372 53.9766 21.66C54.0806 21.94 54.1326 22.256 54.1326 22.608V27H53.0526V22.788C53.0526 22.284 52.9246 21.892 52.6686 21.612C52.4126 21.332 52.0566 21.192 51.6006 21.192C51.1446 21.192 50.7806 21.344 50.5086 21.648C50.2446 21.944 50.1126 22.348 50.1126 22.86V27H49.0326V18.24ZM58.7719 27.12C57.9479 27.12 57.2999 26.896 56.8279 26.448C56.3639 26 56.1319 25.384 56.1319 24.6V22.8C56.1319 22.016 56.3639 21.4 56.8279 20.952C57.2999 20.504 57.9479 20.28 58.7719 20.28C59.5959 20.28 60.2399 20.504 60.7039 20.952C61.1759 21.4 61.4119 22.016 61.4119 22.8V24.012H57.2119V24.54C57.2119 25.044 57.3479 25.44 57.6199 25.728C57.8999 26.016 58.2839 26.16 58.7719 26.16C59.1319 26.16 59.4439 26.104 59.7079 25.992C59.9719 25.88 60.1679 25.716 60.2959 25.5H61.3759C61.2399 26.004 60.9359 26.4 60.4639 26.688C59.9999 26.976 59.4359 27.12 58.7719 27.12ZM60.3319 23.112V22.8C60.3319 22.304 60.1959 21.92 59.9239 21.648C59.6519 21.376 59.2679 21.24 58.7719 21.24C58.2759 21.24 57.8919 21.376 57.6199 21.648C57.3479 21.92 57.2119 22.304 57.2119 22.8V23.112H60.3319ZM63.7112 20.4H64.7312V21.54H64.8272C64.9312 21.148 65.1472 20.84 65.4752 20.616C65.8032 20.392 66.2072 20.28 66.6872 20.28C67.3832 20.28 67.9272 20.5 68.3192 20.94C68.7192 21.372 68.9192 21.968 68.9192 22.728V23.1H67.8392V22.86C67.8392 22.34 67.7072 21.94 67.4432 21.66C67.1872 21.372 66.8192 21.228 66.3392 21.228C65.8672 21.228 65.4912 21.376 65.2112 21.672C64.9312 21.96 64.7912 22.356 64.7912 22.86V27H63.7112V20.4ZM73.1625 27.12C72.3385 27.12 71.6905 26.896 71.2185 26.448C70.7545 26 70.5225 25.384 70.5225 24.6V22.8C70.5225 22.016 70.7545 21.4 71.2185 20.952C71.6905 20.504 72.3385 20.28 73.1625 20.28C73.9865 20.28 74.6305 20.504 75.0945 20.952C75.5665 21.4 75.8025 22.016 75.8025 22.8V24.012H71.6025V24.54C71.6025 25.044 71.7385 25.44 72.0105 25.728C72.2905 26.016 72.6745 26.16 73.1625 26.16C73.5225 26.16 73.8345 26.104 74.0985 25.992C74.3625 25.88 74.5585 25.716 74.6865 25.5H75.7665C75.6305 26.004 75.3265 26.4 74.8545 26.688C74.3905 26.976 73.8265 27.12 73.1625 27.12ZM74.7225 23.112V22.8C74.7225 22.304 74.5865 21.92 74.3145 21.648C74.0425 21.376 73.6585 21.24 73.1625 21.24C72.6665 21.24 72.2825 21.376 72.0105 21.648C71.7385 21.92 71.6025 22.304 71.6025 22.8V23.112H74.7225ZM81.2578 25.188L79.6978 28.92H78.7378L79.6978 25.188H81.2578ZM14.286 50.289V45.231H12.855V44.52H16.545V45.231H15.114V50.289H16.545V51H12.855V50.289H14.286ZM20.7535 44.016L19.5835 46.815H18.8635L19.5835 44.016H20.7535ZM23.351 46.05H23.99V46.779H24.053C24.077 46.515 24.161 46.314 24.305 46.176C24.449 46.032 24.641 45.96 24.881 45.96C25.121 45.96 25.319 46.032 25.475 46.176C25.631 46.314 25.739 46.515 25.799 46.779H25.844C25.868 46.515 25.952 46.314 26.096 46.176C26.24 46.032 26.432 45.96 26.672 45.96C26.978 45.96 27.215 46.074 27.383 46.302C27.551 46.524 27.635 46.833 27.635 47.229V51H26.933V47.229C26.933 47.019 26.885 46.86 26.789 46.752C26.699 46.638 26.567 46.581 26.393 46.581C26.027 46.581 25.844 46.812 25.844 47.274V51H25.142V47.229C25.142 47.055 25.1 46.905 25.016 46.779C24.938 46.647 24.8 46.581 24.602 46.581C24.422 46.581 24.281 46.647 24.179 46.779C24.095 46.899 24.053 47.064 24.053 47.274V51H23.351V46.05ZM75.8253 43.53H76.6983L72.1803 51.99H71.3073L75.8253 43.53ZM77.3248 49.155L77.5228 47.895C77.5708 47.607 77.6518 47.343 77.7658 47.103C77.8858 46.863 78.0298 46.659 78.1978 46.491C78.3718 46.323 78.5668 46.194 78.7828 46.104C79.0048 46.008 79.2418 45.96 79.4938 45.96C79.8538 45.96 80.1388 46.044 80.3488 46.212C80.5588 46.38 80.6788 46.611 80.7088 46.905H80.7718C80.7778 46.869 80.7838 46.818 80.7898 46.752C80.7958 46.68 80.8018 46.605 80.8078 46.527C80.8198 46.443 80.8318 46.359 80.8438 46.275C80.8558 46.191 80.8648 46.116 80.8708 46.05L81.1318 44.43H81.9238L80.8798 51H80.1328L80.2678 50.145H80.1958C80.0758 50.439 79.8808 50.67 79.6108 50.838C79.3468 51.006 79.0348 51.09 78.6748 51.09C78.4228 51.09 78.2008 51.045 78.0088 50.955C77.8228 50.859 77.6698 50.727 77.5498 50.559C77.4358 50.391 77.3578 50.187 77.3158 49.947C77.2738 49.707 77.2768 49.443 77.3248 49.155ZM79.0348 50.388C79.3708 50.388 79.6528 50.289 79.8808 50.091C80.1148 49.893 80.2738 49.623 80.3578 49.281L80.6008 47.76C80.6308 47.424 80.5588 47.157 80.3848 46.959C80.2168 46.761 79.9768 46.662 79.6648 46.662C79.2928 46.662 78.9898 46.773 78.7558 46.995C78.5218 47.211 78.3748 47.511 78.3148 47.895L78.1168 49.155C78.0508 49.539 78.0988 49.842 78.2608 50.064C78.4288 50.28 78.6868 50.388 79.0348 50.388ZM82.8113 49.254L83.3153 46.05H84.1253L83.6033 49.254C83.4773 50.004 83.7743 50.379 84.4943 50.379C85.2203 50.379 85.6433 50.004 85.7633 49.254L86.2673 46.05H87.0593L86.5553 49.254C86.4593 49.842 86.2253 50.295 85.8533 50.613C85.4813 50.931 84.9893 51.09 84.3773 51.09C83.7893 51.09 83.3573 50.928 83.0813 50.604C82.8113 50.28 82.7213 49.83 82.8113 49.254ZM88.5048 47.67H92.1048L91.9968 48.345H88.3968L88.5048 47.67ZM93.4783 49.155L93.6763 47.895C93.7243 47.601 93.8053 47.337 93.9193 47.103C94.0333 46.863 94.1743 46.659 94.3423 46.491C94.5103 46.323 94.7023 46.194 94.9183 46.104C95.1343 46.008 95.3653 45.96 95.6113 45.96C95.9713 45.96 96.2473 46.044 96.4393 46.212C96.6313 46.38 96.7423 46.611 96.7723 46.905H96.8443L96.9793 46.05H97.7263L97.1143 49.947C97.0903 50.067 97.1053 50.16 97.1593 50.226C97.2193 50.292 97.3033 50.325 97.4113 50.325H97.7983L97.6903 51.027H97.1143C96.8563 51.027 96.6523 50.946 96.5023 50.784C96.3583 50.616 96.3013 50.403 96.3313 50.145H96.2593C96.1393 50.439 95.9533 50.67 95.7013 50.838C95.4553 51.006 95.1523 51.09 94.7923 51.09C94.5463 51.09 94.3303 51.045 94.1443 50.955C93.9583 50.859 93.8083 50.727 93.6943 50.559C93.5803 50.391 93.5023 50.19 93.4603 49.956C93.4243 49.716 93.4303 49.449 93.4783 49.155ZM95.1973 50.388C95.5093 50.388 95.7733 50.289 95.9893 50.091C96.2053 49.893 96.3523 49.617 96.4303 49.263L96.6553 47.814C96.6973 47.454 96.6403 47.172 96.4843 46.968C96.3343 46.764 96.1003 46.662 95.7823 46.662C95.4283 46.662 95.1343 46.773 94.9003 46.995C94.6723 47.211 94.5283 47.511 94.4683 47.895L94.2703 49.155C94.2043 49.539 94.2523 49.842 94.4143 50.064C94.5823 50.28 94.8433 50.388 95.1973 50.388ZM98.9018 51L99.6848 46.05H100.432L100.297 46.905H100.369C100.489 46.611 100.687 46.38 100.963 46.212C101.239 46.044 101.557 45.96 101.917 45.96C102.169 45.96 102.391 46.005 102.583 46.095C102.775 46.179 102.928 46.302 103.042 46.464C103.162 46.626 103.243 46.821 103.285 47.049C103.327 47.271 103.324 47.52 103.276 47.796L103.231 48.12H102.439L102.475 47.895C102.535 47.505 102.484 47.202 102.322 46.986C102.16 46.764 101.902 46.653 101.548 46.653C101.188 46.653 100.885 46.767 100.639 46.995C100.399 47.217 100.249 47.517 100.189 47.895L99.6938 51H98.9018ZM104.613 46.05H106.053L106.296 44.52H107.106L106.863 46.05H108.798L108.681 46.788H106.746L106.287 49.722C106.257 49.89 106.287 50.022 106.377 50.118C106.467 50.214 106.602 50.262 106.782 50.262H108.042L107.925 51H106.665C106.455 51 106.269 50.97 106.107 50.91C105.945 50.85 105.81 50.763 105.702 50.649C105.6 50.535 105.528 50.4 105.486 50.244C105.45 50.088 105.447 49.914 105.477 49.722L105.936 46.788H104.496L104.613 46.05ZM113.601 43.53H114.474L109.956 51.99H109.083L113.601 43.53ZM117.908 49.641L116.738 52.44H116.018L116.738 49.641H117.908ZM125.893 49.56C125.893 49.326 125.932 49.116 126.01 48.93C126.094 48.738 126.211 48.576 126.361 48.444C126.517 48.312 126.703 48.21 126.919 48.138C127.135 48.066 127.378 48.03 127.648 48.03H129.124V47.625C129.124 47.319 129.022 47.082 128.818 46.914C128.62 46.74 128.332 46.653 127.954 46.653C127.678 46.653 127.441 46.704 127.243 46.806C127.051 46.908 126.922 47.049 126.856 47.229H126.046C126.13 46.839 126.343 46.53 126.685 46.302C127.033 46.074 127.462 45.96 127.972 45.96C128.584 45.96 129.064 46.104 129.412 46.392C129.76 46.674 129.934 47.07 129.934 47.58V51H129.196V50.055H129.124C129.046 50.373 128.863 50.625 128.575 50.811C128.287 50.997 127.936 51.09 127.522 51.09C127.024 51.09 126.628 50.952 126.334 50.676C126.04 50.4 125.893 50.028 125.893 49.56ZM127.702 50.424C127.906 50.424 128.095 50.397 128.269 50.343C128.443 50.289 128.593 50.214 128.719 50.118C128.845 50.016 128.944 49.899 129.016 49.767C129.088 49.635 129.124 49.491 129.124 49.335V48.66H127.666C127.366 48.66 127.129 48.738 126.955 48.894C126.787 49.05 126.703 49.266 126.703 49.542C126.703 49.818 126.79 50.034 126.964 50.19C127.138 50.346 127.384 50.424 127.702 50.424ZM136.911 51V46.05H137.676V46.905H137.748C137.826 46.605 137.982 46.374 138.216 46.212C138.456 46.044 138.753 45.96 139.107 45.96C139.353 45.96 139.575 46.002 139.773 46.086C139.977 46.17 140.148 46.29 140.286 46.446C140.43 46.596 140.541 46.779 140.619 46.995C140.697 47.205 140.736 47.442 140.736 47.706V51H139.926V47.841C139.926 47.463 139.83 47.169 139.638 46.959C139.446 46.749 139.179 46.644 138.837 46.644C138.495 46.644 138.222 46.758 138.018 46.986C137.82 47.208 137.721 47.511 137.721 47.895V51H136.911ZM144.216 51.09C143.598 51.09 143.112 50.922 142.758 50.586C142.41 50.25 142.236 49.788 142.236 49.2V47.85C142.236 47.262 142.41 46.8 142.758 46.464C143.112 46.128 143.598 45.96 144.216 45.96C144.834 45.96 145.317 46.128 145.665 46.464C146.019 46.8 146.196 47.262 146.196 47.85V48.759H143.046V49.155C143.046 49.533 143.148 49.83 143.352 50.046C143.562 50.262 143.85 50.37 144.216 50.37C144.486 50.37 144.72 50.328 144.918 50.244C145.116 50.16 145.263 50.037 145.359 49.875H146.169C146.067 50.253 145.839 50.55 145.485 50.766C145.137 50.982 144.714 51.09 144.216 51.09ZM145.386 48.084V47.85C145.386 47.478 145.284 47.19 145.08 46.986C144.876 46.782 144.588 46.68 144.216 46.68C143.844 46.68 143.556 46.782 143.352 46.986C143.148 47.19 143.046 47.478 143.046 47.85V48.084H145.386ZM147.92 46.05H148.685V46.905H148.757C148.835 46.611 148.997 46.38 149.243 46.212C149.489 46.044 149.792 45.96 150.152 45.96C150.674 45.96 151.082 46.125 151.376 46.455C151.676 46.779 151.826 47.226 151.826 47.796V48.075H151.016V47.895C151.016 47.505 150.917 47.205 150.719 46.995C150.527 46.779 150.251 46.671 149.891 46.671C149.537 46.671 149.255 46.782 149.045 47.004C148.835 47.22 148.73 47.517 148.73 47.895V51H147.92V46.05ZM153.029 47.895C153.029 47.595 153.068 47.325 153.146 47.085C153.23 46.845 153.344 46.644 153.488 46.482C153.632 46.314 153.806 46.185 154.01 46.095C154.214 46.005 154.442 45.96 154.694 45.96C155.06 45.96 155.363 46.044 155.603 46.212C155.843 46.374 156.002 46.605 156.08 46.905H156.152C156.146 46.803 156.14 46.701 156.134 46.599C156.122 46.509 156.113 46.416 156.107 46.32C156.107 46.218 156.107 46.128 156.107 46.05V44.43H156.917V51H156.152V50.145H156.08C156.002 50.445 155.843 50.679 155.603 50.847C155.363 51.009 155.06 51.09 154.694 51.09C154.442 51.09 154.214 51.045 154.01 50.955C153.806 50.865 153.632 50.739 153.488 50.577C153.344 50.409 153.23 50.205 153.146 49.965C153.068 49.725 153.029 49.455 153.029 49.155V47.895ZM155 50.388C155.336 50.388 155.603 50.277 155.801 50.055C156.005 49.833 156.107 49.533 156.107 49.155V47.895C156.107 47.517 156.005 47.217 155.801 46.995C155.603 46.773 155.336 46.662 155 46.662C154.634 46.662 154.349 46.77 154.145 46.986C153.941 47.202 153.839 47.505 153.839 47.895V49.155C153.839 49.533 153.941 49.833 154.145 50.055C154.355 50.277 154.64 50.388 155 50.388ZM163.642 47.283V46.545H165.082V45.69C165.082 45.294 165.205 44.985 165.451 44.763C165.697 44.541 166.036 44.43 166.468 44.43H167.917V45.168H166.468C166.084 45.168 165.892 45.342 165.892 45.69V46.545H167.917V47.283H165.892V51H165.082V47.283H163.642ZM169.506 46.05H170.271V46.905H170.343C170.421 46.611 170.583 46.38 170.829 46.212C171.075 46.044 171.378 45.96 171.738 45.96C172.26 45.96 172.668 46.125 172.962 46.455C173.262 46.779 173.412 47.226 173.412 47.796V48.075H172.602V47.895C172.602 47.505 172.503 47.205 172.305 46.995C172.113 46.779 171.837 46.671 171.477 46.671C171.123 46.671 170.841 46.782 170.631 47.004C170.421 47.22 170.316 47.517 170.316 47.895V51H169.506V46.05ZM175.425 49.155C175.425 49.533 175.527 49.83 175.731 50.046C175.941 50.262 176.229 50.37 176.595 50.37C176.955 50.37 177.24 50.262 177.45 50.046C177.66 49.83 177.765 49.533 177.765 49.155V47.895C177.765 47.517 177.66 47.22 177.45 47.004C177.24 46.788 176.955 46.68 176.595 46.68C176.235 46.68 175.95 46.788 175.74 47.004C175.53 47.22 175.425 47.517 175.425 47.895V49.155ZM174.615 47.895C174.615 47.595 174.66 47.328 174.75 47.094C174.846 46.854 174.978 46.65 175.146 46.482C175.32 46.314 175.527 46.185 175.767 46.095C176.013 46.005 176.289 45.96 176.595 45.96C177.207 45.96 177.69 46.131 178.044 46.473C178.398 46.815 178.575 47.286 178.575 47.886V49.155C178.575 49.455 178.53 49.725 178.44 49.965C178.35 50.205 178.218 50.409 178.044 50.577C177.876 50.739 177.669 50.865 177.423 50.955C177.177 51.045 176.901 51.09 176.595 51.09C176.289 51.09 176.013 51.045 175.767 50.955C175.527 50.865 175.32 50.736 175.146 50.568C174.978 50.4 174.846 50.196 174.75 49.956C174.66 49.716 174.615 49.449 174.615 49.155V47.895ZM179.849 46.05H180.488V46.779H180.551C180.575 46.515 180.659 46.314 180.803 46.176C180.947 46.032 181.139 45.96 181.379 45.96C181.619 45.96 181.817 46.032 181.973 46.176C182.129 46.314 182.237 46.515 182.297 46.779H182.342C182.366 46.515 182.45 46.314 182.594 46.176C182.738 46.032 182.93 45.96 183.17 45.96C183.476 45.96 183.713 46.074 183.881 46.302C184.049 46.524 184.133 46.833 184.133 47.229V51H183.431V47.229C183.431 47.019 183.383 46.86 183.287 46.752C183.197 46.638 183.065 46.581 182.891 46.581C182.525 46.581 182.342 46.812 182.342 47.274V51H181.64V47.229C181.64 47.055 181.598 46.905 181.514 46.779C181.436 46.647 181.298 46.581 181.1 46.581C180.92 46.581 180.779 46.647 180.677 46.779C180.593 46.899 180.551 47.064 180.551 47.274V51H179.849V46.05ZM193.081 44.52C193.375 44.52 193.642 44.565 193.882 44.655C194.122 44.745 194.326 44.874 194.494 45.042C194.668 45.21 194.8 45.411 194.89 45.645C194.986 45.873 195.034 46.128 195.034 46.41C195.034 46.692 194.986 46.95 194.89 47.184C194.794 47.412 194.659 47.61 194.485 47.778C194.317 47.946 194.113 48.075 193.873 48.165C193.633 48.255 193.369 48.3 193.081 48.3H191.704V51H190.894V44.52H193.081ZM191.704 45.24V47.58H193.081C193.417 47.58 193.687 47.475 193.891 47.265C194.095 47.049 194.197 46.764 194.197 46.41C194.197 46.056 194.095 45.774 193.891 45.564C193.687 45.348 193.417 45.24 193.081 45.24H191.704ZM197.01 49.155C197.01 49.533 197.112 49.83 197.316 50.046C197.526 50.262 197.814 50.37 198.18 50.37C198.54 50.37 198.825 50.262 199.035 50.046C199.245 49.83 199.35 49.533 199.35 49.155V47.895C199.35 47.517 199.245 47.22 199.035 47.004C198.825 46.788 198.54 46.68 198.18 46.68C197.82 46.68 197.535 46.788 197.325 47.004C197.115 47.22 197.01 47.517 197.01 47.895V49.155ZM196.2 47.895C196.2 47.595 196.245 47.328 196.335 47.094C196.431 46.854 196.563 46.65 196.731 46.482C196.905 46.314 197.112 46.185 197.352 46.095C197.598 46.005 197.874 45.96 198.18 45.96C198.792 45.96 199.275 46.131 199.629 46.473C199.983 46.815 200.16 47.286 200.16 47.886V49.155C200.16 49.455 200.115 49.725 200.025 49.965C199.935 50.205 199.803 50.409 199.629 50.577C199.461 50.739 199.254 50.865 199.008 50.955C198.762 51.045 198.486 51.09 198.18 51.09C197.874 51.09 197.598 51.045 197.352 50.955C197.112 50.865 196.905 50.736 196.731 50.568C196.563 50.4 196.431 50.196 196.335 49.956C196.245 49.716 196.2 49.449 196.2 49.155V47.895ZM201.885 46.05H202.65V46.905H202.722C202.8 46.611 202.962 46.38 203.208 46.212C203.454 46.044 203.757 45.96 204.117 45.96C204.639 45.96 205.047 46.125 205.341 46.455C205.641 46.779 205.791 47.226 205.791 47.796V48.075H204.981V47.895C204.981 47.505 204.882 47.205 204.684 46.995C204.492 46.779 204.216 46.671 203.856 46.671C203.502 46.671 203.22 46.782 203.01 47.004C202.8 47.22 202.695 47.517 202.695 47.895V51H201.885V46.05ZM206.813 46.05H208.253V44.52H209.063V46.05H210.998V46.788H209.063V49.722C209.063 49.89 209.114 50.022 209.216 50.118C209.324 50.214 209.468 50.262 209.648 50.262H210.908V51H209.648C209.222 51 208.883 50.883 208.631 50.649C208.379 50.415 208.253 50.106 208.253 49.722V46.788H206.813V46.05ZM212.48 46.05H213.29V49.254C213.29 50.004 213.647 50.379 214.361 50.379C215.087 50.379 215.45 50.004 215.45 49.254V46.05H216.26V49.254C216.26 49.842 216.095 50.295 215.765 50.613C215.441 50.931 214.973 51.09 214.361 51.09C213.761 51.09 213.296 50.931 212.966 50.613C212.642 50.289 212.48 49.836 212.48 49.254V46.05ZM217.723 47.85C217.723 47.562 217.762 47.301 217.84 47.067C217.918 46.833 218.029 46.635 218.173 46.473C218.323 46.311 218.503 46.185 218.713 46.095C218.923 46.005 219.157 45.96 219.415 45.96C219.775 45.96 220.081 46.047 220.333 46.221C220.585 46.389 220.756 46.632 220.846 46.95H220.909V46.05H221.674V50.64C221.674 51.222 221.503 51.675 221.161 51.999C220.819 52.323 220.339 52.485 219.721 52.485H218.506V51.747H219.721C220.081 51.747 220.36 51.651 220.558 51.459C220.762 51.267 220.864 50.994 220.864 50.64V50.46L220.9 49.56H220.846C220.756 49.878 220.585 50.124 220.333 50.298C220.081 50.466 219.775 50.55 219.415 50.55C219.157 50.55 218.923 50.505 218.713 50.415C218.509 50.325 218.332 50.199 218.182 50.037C218.038 49.875 217.924 49.677 217.84 49.443C217.762 49.209 217.723 48.948 217.723 48.66V47.85ZM218.551 48.66C218.551 49.032 218.653 49.323 218.857 49.533C219.067 49.743 219.352 49.848 219.712 49.848C220.072 49.848 220.354 49.743 220.558 49.533C220.762 49.323 220.864 49.032 220.864 48.66V47.85C220.864 47.478 220.762 47.187 220.558 46.977C220.354 46.767 220.072 46.662 219.712 46.662C219.352 46.662 219.067 46.767 218.857 46.977C218.653 47.187 218.551 47.478 218.551 47.85V48.66ZM223.03 49.56C223.03 49.326 223.069 49.116 223.147 48.93C223.231 48.738 223.348 48.576 223.498 48.444C223.654 48.312 223.84 48.21 224.056 48.138C224.272 48.066 224.515 48.03 224.785 48.03H226.261V47.625C226.261 47.319 226.159 47.082 225.955 46.914C225.757 46.74 225.469 46.653 225.091 46.653C224.815 46.653 224.578 46.704 224.38 46.806C224.188 46.908 224.059 47.049 223.993 47.229H223.183C223.267 46.839 223.48 46.53 223.822 46.302C224.17 46.074 224.599 45.96 225.109 45.96C225.721 45.96 226.201 46.104 226.549 46.392C226.897 46.674 227.071 47.07 227.071 47.58V51H226.333V50.055H226.261C226.183 50.373 226 50.625 225.712 50.811C225.424 50.997 225.073 51.09 224.659 51.09C224.161 51.09 223.765 50.952 223.471 50.676C223.177 50.4 223.03 50.028 223.03 49.56ZM224.839 50.424C225.043 50.424 225.232 50.397 225.406 50.343C225.58 50.289 225.73 50.214 225.856 50.118C225.982 50.016 226.081 49.899 226.153 49.767C226.225 49.635 226.261 49.491 226.261 49.335V48.66H224.803C224.503 48.66 224.266 48.738 224.092 48.894C223.924 49.05 223.84 49.266 223.84 49.542C223.84 49.818 223.927 50.034 224.101 50.19C224.275 50.346 224.521 50.424 224.839 50.424ZM230.667 44.43V49.56C230.667 49.782 230.727 49.956 230.847 50.082C230.967 50.202 231.132 50.262 231.342 50.262H232.809V51H231.342C230.88 51 230.517 50.874 230.253 50.622C229.989 50.364 229.857 50.01 229.857 49.56V45.168H228.219V44.43H230.667ZM236.631 49.641L235.461 52.44H234.741L235.461 49.641H236.631ZM246.857 44.43V49.56C246.857 49.782 246.917 49.956 247.037 50.082C247.157 50.202 247.322 50.262 247.532 50.262H248.999V51H247.532C247.07 51 246.707 50.874 246.443 50.622C246.179 50.364 246.047 50.01 246.047 49.56V45.168H244.409V44.43H246.857ZM250.3 51V50.262H252.1V46.788H250.525V46.05H252.91V50.262H254.395V51H250.3ZM252.28 44.115H252.46C252.634 44.115 252.775 44.166 252.883 44.268C252.991 44.37 253.045 44.502 253.045 44.664C253.045 44.826 252.991 44.955 252.883 45.051C252.775 45.147 252.634 45.195 252.46 45.195H252.28C252.106 45.195 251.965 45.15 251.857 45.06C251.749 44.964 251.695 44.832 251.695 44.664C251.695 44.502 251.749 44.37 251.857 44.268C251.965 44.166 252.106 44.115 252.28 44.115ZM255.292 46.05H256.147L257.353 49.551C257.401 49.689 257.437 49.812 257.461 49.92C257.485 50.022 257.503 50.109 257.515 50.181C257.527 50.271 257.533 50.349 257.533 50.415H257.614C257.608 50.349 257.611 50.271 257.623 50.181C257.635 50.109 257.65 50.022 257.668 49.92C257.686 49.812 257.719 49.689 257.767 49.551L258.91 46.05H259.792L258.019 51H257.101L255.292 46.05ZM261.093 51V50.262H262.893V46.788H261.318V46.05H263.703V50.262H265.188V51H261.093ZM263.073 44.115H263.253C263.427 44.115 263.568 44.166 263.676 44.268C263.784 44.37 263.838 44.502 263.838 44.664C263.838 44.826 263.784 44.955 263.676 45.051C263.568 45.147 263.427 45.195 263.253 45.195H263.073C262.899 45.195 262.758 45.15 262.65 45.06C262.542 44.964 262.488 44.832 262.488 44.664C262.488 44.502 262.542 44.37 262.65 44.268C262.758 44.166 262.899 44.115 263.073 44.115ZM266.427 51V46.05H267.192V46.905H267.264C267.342 46.605 267.498 46.374 267.732 46.212C267.972 46.044 268.269 45.96 268.623 45.96C268.869 45.96 269.091 46.002 269.289 46.086C269.493 46.17 269.664 46.29 269.802 46.446C269.946 46.596 270.057 46.779 270.135 46.995C270.213 47.205 270.252 47.442 270.252 47.706V51H269.442V47.841C269.442 47.463 269.346 47.169 269.154 46.959C268.962 46.749 268.695 46.644 268.353 46.644C268.011 46.644 267.738 46.758 267.534 46.986C267.336 47.208 267.237 47.511 267.237 47.895V51H266.427ZM271.688 47.85C271.688 47.562 271.727 47.301 271.805 47.067C271.883 46.833 271.994 46.635 272.138 46.473C272.288 46.311 272.468 46.185 272.678 46.095C272.888 46.005 273.122 45.96 273.38 45.96C273.74 45.96 274.046 46.047 274.298 46.221C274.55 46.389 274.721 46.632 274.811 46.95H274.874V46.05H275.639V50.64C275.639 51.222 275.468 51.675 275.126 51.999C274.784 52.323 274.304 52.485 273.686 52.485H272.471V51.747H273.686C274.046 51.747 274.325 51.651 274.523 51.459C274.727 51.267 274.829 50.994 274.829 50.64V50.46L274.865 49.56H274.811C274.721 49.878 274.55 50.124 274.298 50.298C274.046 50.466 273.74 50.55 273.38 50.55C273.122 50.55 272.888 50.505 272.678 50.415C272.474 50.325 272.297 50.199 272.147 50.037C272.003 49.875 271.889 49.677 271.805 49.443C271.727 49.209 271.688 48.948 271.688 48.66V47.85ZM272.516 48.66C272.516 49.032 272.618 49.323 272.822 49.533C273.032 49.743 273.317 49.848 273.677 49.848C274.037 49.848 274.319 49.743 274.523 49.533C274.727 49.323 274.829 49.032 274.829 48.66V47.85C274.829 47.478 274.727 47.187 274.523 46.977C274.319 46.767 274.037 46.662 273.677 46.662C273.317 46.662 273.032 46.767 272.822 46.977C272.618 47.187 272.516 47.478 272.516 47.85V48.66ZM282.679 51V50.262H284.479V46.788H282.904V46.05H285.289V50.262H286.774V51H282.679ZM284.659 44.115H284.839C285.013 44.115 285.154 44.166 285.262 44.268C285.37 44.37 285.424 44.502 285.424 44.664C285.424 44.826 285.37 44.955 285.262 45.051C285.154 45.147 285.013 45.195 284.839 45.195H284.659C284.485 45.195 284.344 45.15 284.236 45.06C284.128 44.964 284.074 44.832 284.074 44.664C284.074 44.502 284.128 44.37 284.236 44.268C284.344 44.166 284.485 44.115 284.659 44.115ZM288.013 51V46.05H288.778V46.905H288.85C288.928 46.605 289.084 46.374 289.318 46.212C289.558 46.044 289.855 45.96 290.209 45.96C290.455 45.96 290.677 46.002 290.875 46.086C291.079 46.17 291.25 46.29 291.388 46.446C291.532 46.596 291.643 46.779 291.721 46.995C291.799 47.205 291.838 47.442 291.838 47.706V51H291.028V47.841C291.028 47.463 290.932 47.169 290.74 46.959C290.548 46.749 290.281 46.644 289.939 46.644C289.597 46.644 289.324 46.758 289.12 46.986C288.922 47.208 288.823 47.511 288.823 47.895V51H288.013ZM300.615 50.28C300.993 50.28 301.296 50.166 301.524 49.938C301.758 49.704 301.875 49.398 301.875 49.02V46.491C301.875 46.113 301.758 45.81 301.524 45.582C301.296 45.354 300.993 45.24 300.615 45.24H299.616V50.28H300.615ZM298.806 51V44.52H300.615C300.927 44.52 301.209 44.568 301.461 44.664C301.719 44.76 301.938 44.895 302.118 45.069C302.304 45.237 302.445 45.444 302.541 45.69C302.643 45.93 302.694 46.197 302.694 46.491V49.02C302.694 49.314 302.643 49.584 302.541 49.83C302.445 50.076 302.304 50.286 302.118 50.46C301.938 50.628 301.719 50.76 301.461 50.856C301.209 50.952 300.927 51 300.615 51H298.806ZM306.11 51.09C305.492 51.09 305.006 50.922 304.652 50.586C304.304 50.25 304.13 49.788 304.13 49.2V47.85C304.13 47.262 304.304 46.8 304.652 46.464C305.006 46.128 305.492 45.96 306.11 45.96C306.728 45.96 307.211 46.128 307.559 46.464C307.913 46.8 308.09 47.262 308.09 47.85V48.759H304.94V49.155C304.94 49.533 305.042 49.83 305.246 50.046C305.456 50.262 305.744 50.37 306.11 50.37C306.38 50.37 306.614 50.328 306.812 50.244C307.01 50.16 307.157 50.037 307.253 49.875H308.063C307.961 50.253 307.733 50.55 307.379 50.766C307.031 50.982 306.608 51.09 306.11 51.09ZM307.28 48.084V47.85C307.28 47.478 307.178 47.19 306.974 46.986C306.77 46.782 306.482 46.68 306.11 46.68C305.738 46.68 305.45 46.782 305.246 46.986C305.042 47.19 304.94 47.478 304.94 47.85V48.084H307.28ZM309.599 51V46.05H310.364V46.905H310.436C310.514 46.605 310.67 46.374 310.904 46.212C311.144 46.044 311.441 45.96 311.795 45.96C312.041 45.96 312.263 46.002 312.461 46.086C312.665 46.17 312.836 46.29 312.974 46.446C313.118 46.596 313.229 46.779 313.307 46.995C313.385 47.205 313.424 47.442 313.424 47.706V51H312.614V47.841C312.614 47.463 312.518 47.169 312.326 46.959C312.134 46.749 311.867 46.644 311.525 46.644C311.183 46.644 310.91 46.758 310.706 46.986C310.508 47.208 310.409 47.511 310.409 47.895V51H309.599ZM314.761 46.05H315.4V46.779H315.463C315.487 46.515 315.571 46.314 315.715 46.176C315.859 46.032 316.051 45.96 316.291 45.96C316.531 45.96 316.729 46.032 316.885 46.176C317.041 46.314 317.149 46.515 317.209 46.779H317.254C317.278 46.515 317.362 46.314 317.506 46.176C317.65 46.032 317.842 45.96 318.082 45.96C318.388 45.96 318.625 46.074 318.793 46.302C318.961 46.524 319.045 46.833 319.045 47.229V51H318.343V47.229C318.343 47.019 318.295 46.86 318.199 46.752C318.109 46.638 317.977 46.581 317.803 46.581C317.437 46.581 317.254 46.812 317.254 47.274V51H316.552V47.229C316.552 47.055 316.51 46.905 316.426 46.779C316.348 46.647 316.21 46.581 316.012 46.581C315.832 46.581 315.691 46.647 315.589 46.779C315.505 46.899 315.463 47.064 315.463 47.274V51H314.761V46.05ZM320.167 49.56C320.167 49.326 320.206 49.116 320.284 48.93C320.368 48.738 320.485 48.576 320.635 48.444C320.791 48.312 320.977 48.21 321.193 48.138C321.409 48.066 321.652 48.03 321.922 48.03H323.398V47.625C323.398 47.319 323.296 47.082 323.092 46.914C322.894 46.74 322.606 46.653 322.228 46.653C321.952 46.653 321.715 46.704 321.517 46.806C321.325 46.908 321.196 47.049 321.13 47.229H320.32C320.404 46.839 320.617 46.53 320.959 46.302C321.307 46.074 321.736 45.96 322.246 45.96C322.858 45.96 323.338 46.104 323.686 46.392C324.034 46.674 324.208 47.07 324.208 47.58V51H323.47V50.055H323.398C323.32 50.373 323.137 50.625 322.849 50.811C322.561 50.997 322.21 51.09 321.796 51.09C321.298 51.09 320.902 50.952 320.608 50.676C320.314 50.4 320.167 50.028 320.167 49.56ZM321.976 50.424C322.18 50.424 322.369 50.397 322.543 50.343C322.717 50.289 322.867 50.214 322.993 50.118C323.119 50.016 323.218 49.899 323.29 49.767C323.362 49.635 323.398 49.491 323.398 49.335V48.66H321.94C321.64 48.66 321.403 48.738 321.229 48.894C321.061 49.05 320.977 49.266 320.977 49.542C320.977 49.818 321.064 50.034 321.238 50.19C321.412 50.346 321.658 50.424 321.976 50.424ZM326.004 46.05H326.769V46.905H326.841C326.919 46.611 327.081 46.38 327.327 46.212C327.573 46.044 327.876 45.96 328.236 45.96C328.758 45.96 329.166 46.125 329.46 46.455C329.76 46.779 329.91 47.226 329.91 47.796V48.075H329.1V47.895C329.1 47.505 329.001 47.205 328.803 46.995C328.611 46.779 328.335 46.671 327.975 46.671C327.621 46.671 327.339 46.782 327.129 47.004C326.919 47.22 326.814 47.517 326.814 47.895V51H326.004V46.05ZM332.04 44.43V48.12H333.012L334.524 46.05H335.451L333.696 48.444L335.478 51H334.533L333.021 48.84H332.04V51H331.23V44.43H332.04ZM337.715 50.289C337.715 50.055 337.784 49.869 337.922 49.731C338.066 49.587 338.255 49.515 338.489 49.515C338.723 49.515 338.909 49.587 339.047 49.731C339.191 49.869 339.263 50.055 339.263 50.289C339.263 50.529 339.191 50.724 339.047 50.874C338.909 51.018 338.723 51.09 338.489 51.09C338.255 51.09 338.066 51.018 337.922 50.874C337.784 50.724 337.715 50.529 337.715 50.289ZM14.286 80.289V75.231H12.855V74.52H16.545V75.231H15.114V80.289H16.545V81H12.855V80.289H14.286ZM25.601 74.43V79.56C25.601 79.782 25.661 79.956 25.781 80.082C25.901 80.202 26.066 80.262 26.276 80.262H27.743V81H26.276C25.814 81 25.451 80.874 25.187 80.622C24.923 80.364 24.791 80.01 24.791 79.56V75.168H23.153V74.43H25.601ZM29.0445 81V80.262H30.8445V76.788H29.2695V76.05H31.6545V80.262H33.1395V81H29.0445ZM31.0245 74.115H31.2045C31.3785 74.115 31.5195 74.166 31.6275 74.268C31.7355 74.37 31.7895 74.502 31.7895 74.664C31.7895 74.826 31.7355 74.955 31.6275 75.051C31.5195 75.147 31.3785 75.195 31.2045 75.195H31.0245C30.8505 75.195 30.7095 75.15 30.6015 75.06C30.4935 74.964 30.4395 74.832 30.4395 74.664C30.4395 74.502 30.4935 74.37 30.6015 74.268C30.7095 74.166 30.8505 74.115 31.0245 74.115ZM35.2329 74.43V78.12H36.2049L37.7169 76.05H38.6439L36.8889 78.444L38.6709 81H37.7259L36.2139 78.84H35.2329V81H34.4229V74.43H35.2329ZM41.6824 81.09C41.0644 81.09 40.5784 80.922 40.2244 80.586C39.8764 80.25 39.7024 79.788 39.7024 79.2V77.85C39.7024 77.262 39.8764 76.8 40.2244 76.464C40.5784 76.128 41.0644 75.96 41.6824 75.96C42.3004 75.96 42.7834 76.128 43.1314 76.464C43.4854 76.8 43.6624 77.262 43.6624 77.85V78.759H40.5124V79.155C40.5124 79.533 40.6144 79.83 40.8184 80.046C41.0284 80.262 41.3164 80.37 41.6824 80.37C41.9524 80.37 42.1864 80.328 42.3844 80.244C42.5824 80.16 42.7294 80.037 42.8254 79.875H43.6354C43.5334 80.253 43.3054 80.55 42.9514 80.766C42.6034 80.982 42.1804 81.09 41.6824 81.09ZM42.8524 78.084V77.85C42.8524 77.478 42.7504 77.19 42.5464 76.986C42.3424 76.782 42.0544 76.68 41.6824 76.68C41.3104 76.68 41.0224 76.782 40.8184 76.986C40.6144 77.19 40.5124 77.478 40.5124 77.85V78.084H42.8524ZM50.2074 77.895C50.2074 77.601 50.2464 77.334 50.3244 77.094C50.4084 76.854 50.5254 76.65 50.6754 76.482C50.8314 76.314 51.0144 76.185 51.2244 76.095C51.4404 76.005 51.6774 75.96 51.9354 75.96C52.2894 75.96 52.5774 76.044 52.7994 76.212C53.0274 76.38 53.1654 76.611 53.2134 76.905H53.3034C53.2974 76.803 53.2914 76.701 53.2854 76.599C53.2734 76.509 53.2644 76.416 53.2584 76.32C53.2584 76.218 53.2584 76.128 53.2584 76.05V74.43H54.6084V81H53.3034V80.136H53.2134C53.1654 80.436 53.0274 80.67 52.7994 80.838C52.5774 81.006 52.2894 81.09 51.9354 81.09C51.6774 81.09 51.4404 81.045 51.2244 80.955C51.0144 80.859 50.8314 80.727 50.6754 80.559C50.5254 80.385 50.4084 80.178 50.3244 79.938C50.2464 79.692 50.2074 79.416 50.2074 79.11V77.895ZM52.4034 79.911C52.6734 79.911 52.8834 79.836 53.0334 79.686C53.1834 79.536 53.2584 79.344 53.2584 79.11V77.94C53.2584 77.694 53.1804 77.499 53.0244 77.355C52.8684 77.205 52.6614 77.13 52.4034 77.13C52.1454 77.13 51.9384 77.202 51.7824 77.346C51.6324 77.49 51.5574 77.688 51.5574 77.94V79.065C51.5574 79.317 51.6294 79.521 51.7734 79.677C51.9234 79.833 52.1334 79.911 52.4034 79.911ZM55.5589 79.65C55.5589 79.146 55.7419 78.75 56.1079 78.462C56.4739 78.168 56.9719 78.021 57.6019 78.021H58.6729V77.58C58.6729 77.406 58.5979 77.265 58.4479 77.157C58.3039 77.049 58.1059 76.995 57.8539 76.995C57.6319 76.995 57.4459 77.037 57.2959 77.121C57.1519 77.199 57.0589 77.307 57.0169 77.445H55.7119C55.7479 77.217 55.8229 77.013 55.9369 76.833C56.0569 76.647 56.2099 76.491 56.3959 76.365C56.5819 76.233 56.7979 76.134 57.0439 76.068C57.2899 75.996 57.5599 75.96 57.8539 75.96C58.1779 75.96 58.4719 75.999 58.7359 76.077C59.0059 76.155 59.2339 76.266 59.4199 76.41C59.6119 76.548 59.7589 76.716 59.8609 76.914C59.9689 77.112 60.0229 77.334 60.0229 77.58V81H58.7359V80.01H58.6549C58.6129 80.346 58.4539 80.61 58.1779 80.802C57.9079 80.994 57.5629 81.09 57.1429 81.09C56.6569 81.09 56.2699 80.961 55.9819 80.703C55.6999 80.445 55.5589 80.094 55.5589 79.65ZM57.6919 80.055C57.9799 80.055 58.2139 79.989 58.3939 79.857C58.5799 79.719 58.6729 79.545 58.6729 79.335V78.831H57.6019C57.3919 78.831 57.2239 78.885 57.0979 78.993C56.9719 79.095 56.9089 79.242 56.9089 79.434C56.9089 79.626 56.9749 79.779 57.1069 79.893C57.2449 80.001 57.4399 80.055 57.6919 80.055ZM60.8834 76.05H62.1884V74.52H63.5384V76.05H65.3834V77.265H63.5384V79.29C63.5384 79.446 63.5804 79.569 63.6644 79.659C63.7544 79.743 63.8774 79.785 64.0334 79.785H65.2934V81H63.8984C63.3644 81 62.9444 80.85 62.6384 80.55C62.3384 80.244 62.1884 79.824 62.1884 79.29V77.265H60.8834V76.05ZM66.3518 79.65C66.3518 79.146 66.5348 78.75 66.9008 78.462C67.2668 78.168 67.7648 78.021 68.3948 78.021H69.4658V77.58C69.4658 77.406 69.3908 77.265 69.2408 77.157C69.0968 77.049 68.8988 76.995 68.6468 76.995C68.4248 76.995 68.2388 77.037 68.0888 77.121C67.9448 77.199 67.8518 77.307 67.8098 77.445H66.5048C66.5408 77.217 66.6158 77.013 66.7298 76.833C66.8498 76.647 67.0028 76.491 67.1888 76.365C67.3748 76.233 67.5908 76.134 67.8368 76.068C68.0828 75.996 68.3528 75.96 68.6468 75.96C68.9708 75.96 69.2648 75.999 69.5288 76.077C69.7988 76.155 70.0268 76.266 70.2128 76.41C70.4048 76.548 70.5518 76.716 70.6538 76.914C70.7618 77.112 70.8158 77.334 70.8158 77.58V81H69.5288V80.01H69.4478C69.4058 80.346 69.2468 80.61 68.9708 80.802C68.7008 80.994 68.3558 81.09 67.9358 81.09C67.4498 81.09 67.0628 80.961 66.7748 80.703C66.4928 80.445 66.3518 80.094 66.3518 79.65ZM68.4848 80.055C68.7728 80.055 69.0068 79.989 69.1868 79.857C69.3728 79.719 69.4658 79.545 69.4658 79.335V78.831H68.3948C68.1848 78.831 68.0168 78.885 67.8908 78.993C67.7648 79.095 67.7018 79.242 67.7018 79.434C67.7018 79.626 67.7678 79.779 67.8998 79.893C68.0378 80.001 68.2328 80.055 68.4848 80.055ZM79.2238 81.09C78.6058 81.09 78.1228 80.973 77.7748 80.739C77.4268 80.499 77.2228 80.151 77.1628 79.695H78.5128C78.5548 79.833 78.6358 79.938 78.7558 80.01C78.8818 80.082 79.0378 80.118 79.2238 80.118H79.6738C79.9258 80.118 80.1178 80.073 80.2498 79.983C80.3818 79.893 80.4478 79.764 80.4478 79.596C80.4478 79.302 80.2078 79.128 79.7278 79.074L79.0528 79.002C78.4348 78.936 77.9788 78.78 77.6848 78.534C77.3968 78.282 77.2528 77.925 77.2528 77.463C77.2528 76.977 77.4208 76.605 77.7568 76.347C78.0988 76.089 78.5878 75.96 79.2238 75.96H79.6738C80.2738 75.96 80.7418 76.074 81.0778 76.302C81.4198 76.53 81.6178 76.869 81.6718 77.319H80.3218C80.2558 77.055 80.0398 76.923 79.6738 76.923H79.2238C78.7798 76.923 78.5578 77.073 78.5578 77.373C78.5578 77.661 78.7618 77.829 79.1698 77.877L79.8898 77.958C81.1318 78.102 81.7528 78.63 81.7528 79.542C81.7528 80.052 81.5758 80.439 81.2218 80.703C80.8678 80.961 80.3518 81.09 79.6738 81.09H79.2238ZM84.8993 81.09C84.5573 81.09 84.2453 81.045 83.9633 80.955C83.6873 80.865 83.4503 80.736 83.2523 80.568C83.0543 80.4 82.9013 80.199 82.7933 79.965C82.6853 79.725 82.6313 79.458 82.6313 79.164V77.895C82.6313 77.601 82.6853 77.337 82.7933 77.103C82.9013 76.863 83.0543 76.659 83.2523 76.491C83.4503 76.323 83.6873 76.194 83.9633 76.104C84.2453 76.008 84.5573 75.96 84.8993 75.96C85.1993 75.96 85.4783 76.002 85.7363 76.086C85.9943 76.17 86.2223 76.29 86.4203 76.446C86.6183 76.602 86.7833 76.791 86.9153 77.013C87.0473 77.235 87.1373 77.484 87.1853 77.76H85.8353C85.7933 77.568 85.6883 77.415 85.5203 77.301C85.3523 77.187 85.1453 77.13 84.8993 77.13C84.6113 77.13 84.3863 77.199 84.2243 77.337C84.0623 77.469 83.9813 77.655 83.9813 77.895V79.164C83.9813 79.404 84.0623 79.59 84.2243 79.722C84.3863 79.854 84.6113 79.92 84.8993 79.92C85.1393 79.92 85.3433 79.863 85.5113 79.749C85.6793 79.629 85.7873 79.473 85.8353 79.281H87.1853C87.1373 79.557 87.0473 79.806 86.9153 80.028C86.7833 80.25 86.6183 80.442 86.4203 80.604C86.2223 80.76 85.9943 80.88 85.7363 80.964C85.4783 81.048 85.1993 81.09 84.8993 81.09ZM88.2258 79.776H89.9808V77.265H88.4508V76.05H91.2408V79.776H92.6358V81H88.2258V79.776ZM89.7108 74.745C89.7108 74.553 89.7708 74.4 89.8908 74.286C90.0168 74.172 90.1818 74.115 90.3858 74.115H90.6558C90.8598 74.115 91.0218 74.172 91.1418 74.286C91.2678 74.4 91.3308 74.553 91.3308 74.745C91.3308 74.937 91.2678 75.09 91.1418 75.204C91.0218 75.318 90.8568 75.375 90.6468 75.375H90.3858C90.1818 75.375 90.0168 75.318 89.8908 75.204C89.7708 75.09 89.7108 74.937 89.7108 74.745ZM95.6473 81.09C95.3053 81.09 94.9933 81.042 94.7113 80.946C94.4353 80.85 94.1983 80.718 94.0003 80.55C93.8023 80.376 93.6493 80.166 93.5413 79.92C93.4333 79.674 93.3793 79.404 93.3793 79.11V77.931C93.3793 77.631 93.4333 77.361 93.5413 77.121C93.6493 76.881 93.8023 76.674 94.0003 76.5C94.1983 76.326 94.4353 76.194 94.7113 76.104C94.9933 76.008 95.3053 75.96 95.6473 75.96C95.9833 75.96 96.2893 76.008 96.5653 76.104C96.8413 76.2 97.0783 76.335 97.2763 76.509C97.4743 76.683 97.6273 76.893 97.7353 77.139C97.8433 77.379 97.8973 77.646 97.8973 77.94V78.84H94.7113V79.11C94.7113 79.41 94.7923 79.644 94.9543 79.812C95.1163 79.974 95.3473 80.055 95.6473 80.055C95.8693 80.055 96.0583 80.019 96.2143 79.947C96.3703 79.875 96.4753 79.776 96.5293 79.65H97.8523C97.7983 79.866 97.7023 80.064 97.5643 80.244C97.4323 80.418 97.2703 80.568 97.0783 80.694C96.8863 80.82 96.6673 80.919 96.4213 80.991C96.1813 81.057 95.9233 81.09 95.6473 81.09ZM96.5923 78.03V77.94C96.5923 77.64 96.5083 77.409 96.3403 77.247C96.1783 77.079 95.9473 76.995 95.6473 76.995C95.3533 76.995 95.1223 77.079 94.9543 77.247C94.7923 77.409 94.7113 77.637 94.7113 77.931V78.03H96.5923ZM98.8928 81V76.05H100.171V76.905H100.261C100.303 76.605 100.435 76.374 100.657 76.212C100.879 76.044 101.17 75.96 101.53 75.96C102.034 75.96 102.43 76.125 102.718 76.455C103.012 76.785 103.159 77.235 103.159 77.805V81H101.809V77.94C101.809 77.688 101.737 77.49 101.593 77.346C101.455 77.202 101.266 77.13 101.026 77.13C100.786 77.13 100.594 77.202 100.45 77.346C100.312 77.49 100.243 77.688 100.243 77.94V81H98.8928ZM106.485 81.09C106.143 81.09 105.831 81.045 105.549 80.955C105.273 80.865 105.036 80.736 104.838 80.568C104.64 80.4 104.487 80.199 104.379 79.965C104.271 79.725 104.217 79.458 104.217 79.164V77.895C104.217 77.601 104.271 77.337 104.379 77.103C104.487 76.863 104.64 76.659 104.838 76.491C105.036 76.323 105.273 76.194 105.549 76.104C105.831 76.008 106.143 75.96 106.485 75.96C106.785 75.96 107.064 76.002 107.322 76.086C107.58 76.17 107.808 76.29 108.006 76.446C108.204 76.602 108.369 76.791 108.501 77.013C108.633 77.235 108.723 77.484 108.771 77.76H107.421C107.379 77.568 107.274 77.415 107.106 77.301C106.938 77.187 106.731 77.13 106.485 77.13C106.197 77.13 105.972 77.199 105.81 77.337C105.648 77.469 105.567 77.655 105.567 77.895V79.164C105.567 79.404 105.648 79.59 105.81 79.722C105.972 79.854 106.197 79.92 106.485 79.92C106.725 79.92 106.929 79.863 107.097 79.749C107.265 79.629 107.373 79.473 107.421 79.281H108.771C108.723 79.557 108.633 79.806 108.501 80.028C108.369 80.25 108.204 80.442 108.006 80.604C107.808 80.76 107.58 80.88 107.322 80.964C107.064 81.048 106.785 81.09 106.485 81.09ZM111.837 81.09C111.495 81.09 111.183 81.042 110.901 80.946C110.625 80.85 110.388 80.718 110.19 80.55C109.992 80.376 109.839 80.166 109.731 79.92C109.623 79.674 109.569 79.404 109.569 79.11V77.931C109.569 77.631 109.623 77.361 109.731 77.121C109.839 76.881 109.992 76.674 110.19 76.5C110.388 76.326 110.625 76.194 110.901 76.104C111.183 76.008 111.495 75.96 111.837 75.96C112.173 75.96 112.479 76.008 112.755 76.104C113.031 76.2 113.268 76.335 113.466 76.509C113.664 76.683 113.817 76.893 113.925 77.139C114.033 77.379 114.087 77.646 114.087 77.94V78.84H110.901V79.11C110.901 79.41 110.982 79.644 111.144 79.812C111.306 79.974 111.537 80.055 111.837 80.055C112.059 80.055 112.248 80.019 112.404 79.947C112.56 79.875 112.665 79.776 112.719 79.65H114.042C113.988 79.866 113.892 80.064 113.754 80.244C113.622 80.418 113.46 80.568 113.268 80.694C113.076 80.82 112.857 80.919 112.611 80.991C112.371 81.057 112.113 81.09 111.837 81.09ZM112.782 78.03V77.94C112.782 77.64 112.698 77.409 112.53 77.247C112.368 77.079 112.137 76.995 111.837 76.995C111.543 76.995 111.312 77.079 111.144 77.247C110.982 77.409 110.901 77.637 110.901 77.931V78.03H112.782ZM117.908 79.641L116.738 82.44H116.018L116.738 79.641H117.908ZM127.198 76.05V76.905H127.288C127.336 76.611 127.471 76.38 127.693 76.212C127.921 76.044 128.212 75.96 128.566 75.96C128.83 75.96 129.067 76.005 129.277 76.095C129.487 76.185 129.667 76.314 129.817 76.482C129.973 76.65 130.09 76.854 130.168 77.094C130.252 77.334 130.294 77.601 130.294 77.895V79.11C130.294 79.416 130.252 79.692 130.168 79.938C130.09 80.178 129.973 80.385 129.817 80.559C129.667 80.727 129.487 80.859 129.277 80.955C129.067 81.045 128.83 81.09 128.566 81.09C128.212 81.09 127.921 81.006 127.693 80.838C127.471 80.67 127.336 80.436 127.288 80.136H127.198C127.204 80.184 127.213 80.292 127.225 80.46C127.237 80.628 127.243 80.808 127.243 81V82.485H125.893V76.05H127.198ZM127.243 79.11C127.243 79.344 127.318 79.536 127.468 79.686C127.618 79.836 127.828 79.911 128.098 79.911C128.368 79.911 128.575 79.833 128.719 79.677C128.869 79.521 128.944 79.317 128.944 79.065V77.94C128.944 77.688 128.866 77.49 128.71 77.346C128.56 77.202 128.356 77.13 128.098 77.13C127.84 77.13 127.633 77.205 127.477 77.355C127.321 77.499 127.243 77.694 127.243 77.94V79.11ZM131.461 76.05H132.739V76.905H132.829C132.877 76.599 133.018 76.365 133.252 76.203C133.486 76.041 133.795 75.96 134.179 75.96C134.725 75.96 135.148 76.128 135.448 76.464C135.748 76.794 135.898 77.256 135.898 77.85V78.255H134.458V77.94C134.458 77.67 134.38 77.46 134.224 77.31C134.068 77.16 133.855 77.085 133.585 77.085C133.345 77.085 133.156 77.163 133.018 77.319C132.88 77.469 132.811 77.676 132.811 77.94V81H131.461V76.05ZM137.901 79.11C137.901 79.356 137.982 79.551 138.144 79.695C138.312 79.839 138.537 79.911 138.819 79.911C139.101 79.911 139.323 79.839 139.485 79.695C139.653 79.551 139.737 79.356 139.737 79.11V77.931C139.737 77.685 139.653 77.49 139.485 77.346C139.323 77.202 139.101 77.13 138.819 77.13C138.537 77.13 138.312 77.202 138.144 77.346C137.982 77.49 137.901 77.685 137.901 77.931V79.11ZM136.551 77.931C136.551 77.643 136.605 77.379 136.713 77.139C136.821 76.893 136.974 76.683 137.172 76.509C137.37 76.335 137.607 76.2 137.883 76.104C138.165 76.008 138.477 75.96 138.819 75.96C139.161 75.96 139.47 76.008 139.746 76.104C140.028 76.2 140.268 76.335 140.466 76.509C140.664 76.683 140.817 76.893 140.925 77.139C141.033 77.379 141.087 77.643 141.087 77.931V79.11C141.087 79.398 141.033 79.665 140.925 79.911C140.817 80.151 140.664 80.361 140.466 80.541C140.268 80.715 140.028 80.85 139.746 80.946C139.47 81.042 139.161 81.09 138.819 81.09C138.477 81.09 138.165 81.042 137.883 80.946C137.607 80.85 137.37 80.715 137.172 80.541C136.974 80.361 136.821 80.151 136.713 79.911C136.605 79.665 136.551 79.398 136.551 79.11V77.931ZM141.948 77.895C141.948 77.607 141.987 77.343 142.065 77.103C142.149 76.863 142.266 76.659 142.416 76.491C142.566 76.323 142.746 76.194 142.956 76.104C143.172 76.008 143.409 75.96 143.667 75.96C144.045 75.96 144.351 76.05 144.585 76.23C144.819 76.41 144.951 76.65 144.981 76.95H145.044V76.05H146.349V80.739C146.349 81.003 146.298 81.24 146.196 81.45C146.094 81.666 145.95 81.849 145.764 81.999C145.578 82.155 145.353 82.275 145.089 82.359C144.825 82.443 144.534 82.485 144.216 82.485H142.821V81.405H144.216C144.45 81.405 144.639 81.342 144.783 81.216C144.927 81.096 144.999 80.937 144.999 80.739V80.685L145.044 79.641H144.981C144.945 79.941 144.81 80.181 144.576 80.361C144.342 80.541 144.036 80.631 143.658 80.631C143.4 80.631 143.166 80.586 142.956 80.496C142.746 80.4 142.566 80.268 142.416 80.1C142.266 79.932 142.149 79.728 142.065 79.488C141.987 79.248 141.948 78.984 141.948 78.696V77.895ZM143.298 78.651C143.298 78.903 143.373 79.101 143.523 79.245C143.679 79.389 143.886 79.461 144.144 79.461C144.402 79.461 144.609 79.389 144.765 79.245C144.921 79.095 144.999 78.897 144.999 78.651V77.94C144.999 77.694 144.921 77.499 144.765 77.355C144.609 77.205 144.402 77.13 144.144 77.13C143.886 77.13 143.679 77.202 143.523 77.346C143.373 77.49 143.298 77.688 143.298 77.94V78.651ZM147.65 76.05H148.928V76.905H149.018C149.066 76.599 149.207 76.365 149.441 76.203C149.675 76.041 149.984 75.96 150.368 75.96C150.914 75.96 151.337 76.128 151.637 76.464C151.937 76.794 152.087 77.256 152.087 77.85V78.255H150.647V77.94C150.647 77.67 150.569 77.46 150.413 77.31C150.257 77.16 150.044 77.085 149.774 77.085C149.534 77.085 149.345 77.163 149.207 77.319C149.069 77.469 149 77.676 149 77.94V81H147.65V76.05ZM152.696 79.65C152.696 79.146 152.879 78.75 153.245 78.462C153.611 78.168 154.109 78.021 154.739 78.021H155.81V77.58C155.81 77.406 155.735 77.265 155.585 77.157C155.441 77.049 155.243 76.995 154.991 76.995C154.769 76.995 154.583 77.037 154.433 77.121C154.289 77.199 154.196 77.307 154.154 77.445H152.849C152.885 77.217 152.96 77.013 153.074 76.833C153.194 76.647 153.347 76.491 153.533 76.365C153.719 76.233 153.935 76.134 154.181 76.068C154.427 75.996 154.697 75.96 154.991 75.96C155.315 75.96 155.609 75.999 155.873 76.077C156.143 76.155 156.371 76.266 156.557 76.41C156.749 76.548 156.896 76.716 156.998 76.914C157.106 77.112 157.16 77.334 157.16 77.58V81H155.873V80.01H155.792C155.75 80.346 155.591 80.61 155.315 80.802C155.045 80.994 154.7 81.09 154.28 81.09C153.794 81.09 153.407 80.961 153.119 80.703C152.837 80.445 152.696 80.094 152.696 79.65ZM154.829 80.055C155.117 80.055 155.351 79.989 155.531 79.857C155.717 79.719 155.81 79.545 155.81 79.335V78.831H154.739C154.529 78.831 154.361 78.885 154.235 78.993C154.109 79.095 154.046 79.242 154.046 79.434C154.046 79.626 154.112 79.779 154.244 79.893C154.382 80.001 154.577 80.055 154.829 80.055ZM159.073 76.05V76.77H159.163C159.175 76.518 159.256 76.32 159.406 76.176C159.556 76.032 159.754 75.96 160 75.96C160.234 75.96 160.429 76.032 160.585 76.176C160.747 76.32 160.858 76.518 160.918 76.77H160.954C160.966 76.518 161.047 76.32 161.197 76.176C161.347 76.032 161.545 75.96 161.791 75.96C162.091 75.96 162.325 76.074 162.493 76.302C162.667 76.524 162.754 76.83 162.754 77.22V81H161.647V77.373C161.647 77.043 161.527 76.878 161.287 76.878C161.167 76.878 161.083 76.923 161.035 77.013C160.987 77.097 160.963 77.217 160.963 77.373V81H159.856V77.373C159.856 77.043 159.736 76.878 159.496 76.878C159.376 76.878 159.292 76.923 159.244 77.013C159.196 77.097 159.172 77.217 159.172 77.373V81H158.065V76.05H159.073ZM164.47 76.05V76.77H164.56C164.572 76.518 164.653 76.32 164.803 76.176C164.953 76.032 165.151 75.96 165.397 75.96C165.631 75.96 165.826 76.032 165.982 76.176C166.144 76.32 166.255 76.518 166.315 76.77H166.351C166.363 76.518 166.444 76.32 166.594 76.176C166.744 76.032 166.942 75.96 167.188 75.96C167.488 75.96 167.722 76.074 167.89 76.302C168.064 76.524 168.151 76.83 168.151 77.22V81H167.044V77.373C167.044 77.043 166.924 76.878 166.684 76.878C166.564 76.878 166.48 76.923 166.432 77.013C166.384 77.097 166.36 77.217 166.36 77.373V81H165.253V77.373C165.253 77.043 165.133 76.878 164.893 76.878C164.773 76.878 164.689 76.923 164.641 77.013C164.593 77.097 164.569 77.217 164.569 77.373V81H163.462V76.05H164.47ZM169.173 79.776H170.928V77.265H169.398V76.05H172.188V79.776H173.583V81H169.173V79.776ZM170.658 74.745C170.658 74.553 170.718 74.4 170.838 74.286C170.964 74.172 171.129 74.115 171.333 74.115H171.603C171.807 74.115 171.969 74.172 172.089 74.286C172.215 74.4 172.278 74.553 172.278 74.745C172.278 74.937 172.215 75.09 172.089 75.204C171.969 75.318 171.804 75.375 171.594 75.375H171.333C171.129 75.375 170.964 75.318 170.838 75.204C170.718 75.09 170.658 74.937 170.658 74.745ZM174.444 81V76.05H175.722V76.905H175.812C175.854 76.605 175.986 76.374 176.208 76.212C176.43 76.044 176.721 75.96 177.081 75.96C177.585 75.96 177.981 76.125 178.269 76.455C178.563 76.785 178.71 77.235 178.71 77.805V81H177.36V77.94C177.36 77.688 177.288 77.49 177.144 77.346C177.006 77.202 176.817 77.13 176.577 77.13C176.337 77.13 176.145 77.202 176.001 77.346C175.863 77.49 175.794 77.688 175.794 77.94V81H174.444ZM179.723 77.895C179.723 77.607 179.762 77.343 179.84 77.103C179.924 76.863 180.041 76.659 180.191 76.491C180.341 76.323 180.521 76.194 180.731 76.104C180.947 76.008 181.184 75.96 181.442 75.96C181.82 75.96 182.126 76.05 182.36 76.23C182.594 76.41 182.726 76.65 182.756 76.95H182.819V76.05H184.124V80.739C184.124 81.003 184.073 81.24 183.971 81.45C183.869 81.666 183.725 81.849 183.539 81.999C183.353 82.155 183.128 82.275 182.864 82.359C182.6 82.443 182.309 82.485 181.991 82.485H180.596V81.405H181.991C182.225 81.405 182.414 81.342 182.558 81.216C182.702 81.096 182.774 80.937 182.774 80.739V80.685L182.819 79.641H182.756C182.72 79.941 182.585 80.181 182.351 80.361C182.117 80.541 181.811 80.631 181.433 80.631C181.175 80.631 180.941 80.586 180.731 80.496C180.521 80.4 180.341 80.268 180.191 80.1C180.041 79.932 179.924 79.728 179.84 79.488C179.762 79.248 179.723 78.984 179.723 78.696V77.895ZM181.073 78.651C181.073 78.903 181.148 79.101 181.298 79.245C181.454 79.389 181.661 79.461 181.919 79.461C182.177 79.461 182.384 79.389 182.54 79.245C182.696 79.095 182.774 78.897 182.774 78.651V77.94C182.774 77.694 182.696 77.499 182.54 77.355C182.384 77.205 182.177 77.13 181.919 77.13C181.661 77.13 181.454 77.202 181.298 77.346C181.148 77.49 181.073 77.688 181.073 77.94V78.651ZM188.063 79.641L186.893 82.44H186.173L186.893 79.641H188.063ZM195.867 79.65C195.867 79.146 196.05 78.75 196.416 78.462C196.782 78.168 197.28 78.021 197.91 78.021H198.981V77.58C198.981 77.406 198.906 77.265 198.756 77.157C198.612 77.049 198.414 76.995 198.162 76.995C197.94 76.995 197.754 77.037 197.604 77.121C197.46 77.199 197.367 77.307 197.325 77.445H196.02C196.056 77.217 196.131 77.013 196.245 76.833C196.365 76.647 196.518 76.491 196.704 76.365C196.89 76.233 197.106 76.134 197.352 76.068C197.598 75.996 197.868 75.96 198.162 75.96C198.486 75.96 198.78 75.999 199.044 76.077C199.314 76.155 199.542 76.266 199.728 76.41C199.92 76.548 200.067 76.716 200.169 76.914C200.277 77.112 200.331 77.334 200.331 77.58V81H199.044V80.01H198.963C198.921 80.346 198.762 80.61 198.486 80.802C198.216 80.994 197.871 81.09 197.451 81.09C196.965 81.09 196.578 80.961 196.29 80.703C196.008 80.445 195.867 80.094 195.867 79.65ZM198 80.055C198.288 80.055 198.522 79.989 198.702 79.857C198.888 79.719 198.981 79.545 198.981 79.335V78.831H197.91C197.7 78.831 197.532 78.885 197.406 78.993C197.28 79.095 197.217 79.242 197.217 79.434C197.217 79.626 197.283 79.779 197.415 79.893C197.553 80.001 197.748 80.055 198 80.055ZM201.462 76.05H202.812V79.065C202.812 79.635 203.067 79.92 203.577 79.92C204.087 79.92 204.342 79.635 204.342 79.065V76.05H205.692V79.074C205.692 79.71 205.503 80.205 205.125 80.559C204.753 80.913 204.237 81.09 203.577 81.09C202.905 81.09 202.383 80.913 202.011 80.559C201.645 80.199 201.462 79.704 201.462 79.074V76.05ZM206.588 76.05H207.893V74.52H209.243V76.05H211.088V77.265H209.243V79.29C209.243 79.446 209.285 79.569 209.369 79.659C209.459 79.743 209.582 79.785 209.738 79.785H210.998V81H209.603C209.069 81 208.649 80.85 208.343 80.55C208.043 80.244 207.893 79.824 207.893 79.29V77.265H206.588V76.05ZM213.452 79.11C213.452 79.356 213.533 79.551 213.695 79.695C213.863 79.839 214.088 79.911 214.37 79.911C214.652 79.911 214.874 79.839 215.036 79.695C215.204 79.551 215.288 79.356 215.288 79.11V77.931C215.288 77.685 215.204 77.49 215.036 77.346C214.874 77.202 214.652 77.13 214.37 77.13C214.088 77.13 213.863 77.202 213.695 77.346C213.533 77.49 213.452 77.685 213.452 77.931V79.11ZM212.102 77.931C212.102 77.643 212.156 77.379 212.264 77.139C212.372 76.893 212.525 76.683 212.723 76.509C212.921 76.335 213.158 76.2 213.434 76.104C213.716 76.008 214.028 75.96 214.37 75.96C214.712 75.96 215.021 76.008 215.297 76.104C215.579 76.2 215.819 76.335 216.017 76.509C216.215 76.683 216.368 76.893 216.476 77.139C216.584 77.379 216.638 77.643 216.638 77.931V79.11C216.638 79.398 216.584 79.665 216.476 79.911C216.368 80.151 216.215 80.361 216.017 80.541C215.819 80.715 215.579 80.85 215.297 80.946C215.021 81.042 214.712 81.09 214.37 81.09C214.028 81.09 213.716 81.042 213.434 80.946C213.158 80.85 212.921 80.715 212.723 80.541C212.525 80.361 212.372 80.151 212.264 79.911C212.156 79.665 212.102 79.398 212.102 79.11V77.931ZM218.434 76.05V76.77H218.524C218.536 76.518 218.617 76.32 218.767 76.176C218.917 76.032 219.115 75.96 219.361 75.96C219.595 75.96 219.79 76.032 219.946 76.176C220.108 76.32 220.219 76.518 220.279 76.77H220.315C220.327 76.518 220.408 76.32 220.558 76.176C220.708 76.032 220.906 75.96 221.152 75.96C221.452 75.96 221.686 76.074 221.854 76.302C222.028 76.524 222.115 76.83 222.115 77.22V81H221.008V77.373C221.008 77.043 220.888 76.878 220.648 76.878C220.528 76.878 220.444 76.923 220.396 77.013C220.348 77.097 220.324 77.217 220.324 77.373V81H219.217V77.373C219.217 77.043 219.097 76.878 218.857 76.878C218.737 76.878 218.653 76.923 218.605 77.013C218.557 77.097 218.533 77.217 218.533 77.373V81H217.426V76.05H218.434ZM222.85 79.65C222.85 79.146 223.033 78.75 223.399 78.462C223.765 78.168 224.263 78.021 224.893 78.021H225.964V77.58C225.964 77.406 225.889 77.265 225.739 77.157C225.595 77.049 225.397 76.995 225.145 76.995C224.923 76.995 224.737 77.037 224.587 77.121C224.443 77.199 224.35 77.307 224.308 77.445H223.003C223.039 77.217 223.114 77.013 223.228 76.833C223.348 76.647 223.501 76.491 223.687 76.365C223.873 76.233 224.089 76.134 224.335 76.068C224.581 75.996 224.851 75.96 225.145 75.96C225.469 75.96 225.763 75.999 226.027 76.077C226.297 76.155 226.525 76.266 226.711 76.41C226.903 76.548 227.05 76.716 227.152 76.914C227.26 77.112 227.314 77.334 227.314 77.58V81H226.027V80.01H225.946C225.904 80.346 225.745 80.61 225.469 80.802C225.199 80.994 224.854 81.09 224.434 81.09C223.948 81.09 223.561 80.961 223.273 80.703C222.991 80.445 222.85 80.094 222.85 79.65ZM224.983 80.055C225.271 80.055 225.505 79.989 225.685 79.857C225.871 79.719 225.964 79.545 225.964 79.335V78.831H224.893C224.683 78.831 224.515 78.885 224.389 78.993C224.263 79.095 224.2 79.242 224.2 79.434C224.2 79.626 224.266 79.779 224.398 79.893C224.536 80.001 224.731 80.055 224.983 80.055ZM228.174 76.05H229.479V74.52H230.829V76.05H232.674V77.265H230.829V79.29C230.829 79.446 230.871 79.569 230.955 79.659C231.045 79.743 231.168 79.785 231.324 79.785H232.584V81H231.189C230.655 81 230.235 80.85 229.929 80.55C229.629 80.244 229.479 79.824 229.479 79.29V77.265H228.174V76.05ZM233.931 79.776H235.686V77.265H234.156V76.05H236.946V79.776H238.341V81H233.931V79.776ZM235.416 74.745C235.416 74.553 235.476 74.4 235.596 74.286C235.722 74.172 235.887 74.115 236.091 74.115H236.361C236.565 74.115 236.727 74.172 236.847 74.286C236.973 74.4 237.036 74.553 237.036 74.745C237.036 74.937 236.973 75.09 236.847 75.204C236.727 75.318 236.562 75.375 236.352 75.375H236.091C235.887 75.375 235.722 75.318 235.596 75.204C235.476 75.09 235.416 74.937 235.416 74.745ZM240.434 79.11C240.434 79.356 240.515 79.551 240.677 79.695C240.845 79.839 241.07 79.911 241.352 79.911C241.634 79.911 241.856 79.839 242.018 79.695C242.186 79.551 242.27 79.356 242.27 79.11V77.931C242.27 77.685 242.186 77.49 242.018 77.346C241.856 77.202 241.634 77.13 241.352 77.13C241.07 77.13 240.845 77.202 240.677 77.346C240.515 77.49 240.434 77.685 240.434 77.931V79.11ZM239.084 77.931C239.084 77.643 239.138 77.379 239.246 77.139C239.354 76.893 239.507 76.683 239.705 76.509C239.903 76.335 240.14 76.2 240.416 76.104C240.698 76.008 241.01 75.96 241.352 75.96C241.694 75.96 242.003 76.008 242.279 76.104C242.561 76.2 242.801 76.335 242.999 76.509C243.197 76.683 243.35 76.893 243.458 77.139C243.566 77.379 243.62 77.643 243.62 77.931V79.11C243.62 79.398 243.566 79.665 243.458 79.911C243.35 80.151 243.197 80.361 242.999 80.541C242.801 80.715 242.561 80.85 242.279 80.946C242.003 81.042 241.694 81.09 241.352 81.09C241.01 81.09 240.698 81.042 240.416 80.946C240.14 80.85 239.903 80.715 239.705 80.541C239.507 80.361 239.354 80.151 239.246 79.911C239.138 79.665 239.084 79.398 239.084 79.11V77.931ZM244.598 81V76.05H245.876V76.905H245.966C246.008 76.605 246.14 76.374 246.362 76.212C246.584 76.044 246.875 75.96 247.235 75.96C247.739 75.96 248.135 76.125 248.423 76.455C248.717 76.785 248.864 77.235 248.864 77.805V81H247.514V77.94C247.514 77.688 247.442 77.49 247.298 77.346C247.16 77.202 246.971 77.13 246.731 77.13C246.491 77.13 246.299 77.202 246.155 77.346C246.017 77.49 245.948 77.688 245.948 77.94V81H244.598ZM252.82 79.641L251.65 82.44H250.93L251.65 79.641H252.82ZM260.805 79.56C260.805 79.326 260.844 79.116 260.922 78.93C261.006 78.738 261.123 78.576 261.273 78.444C261.429 78.312 261.615 78.21 261.831 78.138C262.047 78.066 262.29 78.03 262.56 78.03H264.036V77.625C264.036 77.319 263.934 77.082 263.73 76.914C263.532 76.74 263.244 76.653 262.866 76.653C262.59 76.653 262.353 76.704 262.155 76.806C261.963 76.908 261.834 77.049 261.768 77.229H260.958C261.042 76.839 261.255 76.53 261.597 76.302C261.945 76.074 262.374 75.96 262.884 75.96C263.496 75.96 263.976 76.104 264.324 76.392C264.672 76.674 264.846 77.07 264.846 77.58V81H264.108V80.055H264.036C263.958 80.373 263.775 80.625 263.487 80.811C263.199 80.997 262.848 81.09 262.434 81.09C261.936 81.09 261.54 80.952 261.246 80.676C260.952 80.4 260.805 80.028 260.805 79.56ZM262.614 80.424C262.818 80.424 263.007 80.397 263.181 80.343C263.355 80.289 263.505 80.214 263.631 80.118C263.757 80.016 263.856 79.899 263.928 79.767C264 79.635 264.036 79.491 264.036 79.335V78.66H262.578C262.278 78.66 262.041 78.738 261.867 78.894C261.699 79.05 261.615 79.266 261.615 79.542C261.615 79.818 261.702 80.034 261.876 80.19C262.05 80.346 262.296 80.424 262.614 80.424ZM266.427 81V76.05H267.192V76.905H267.264C267.342 76.605 267.498 76.374 267.732 76.212C267.972 76.044 268.269 75.96 268.623 75.96C268.869 75.96 269.091 76.002 269.289 76.086C269.493 76.17 269.664 76.29 269.802 76.446C269.946 76.596 270.057 76.779 270.135 76.995C270.213 77.205 270.252 77.442 270.252 77.706V81H269.442V77.841C269.442 77.463 269.346 77.169 269.154 76.959C268.962 76.749 268.695 76.644 268.353 76.644C268.011 76.644 267.738 76.758 267.534 76.986C267.336 77.208 267.237 77.511 267.237 77.895V81H266.427ZM271.751 77.895C271.751 77.595 271.79 77.325 271.868 77.085C271.952 76.845 272.066 76.644 272.21 76.482C272.354 76.314 272.528 76.185 272.732 76.095C272.936 76.005 273.164 75.96 273.416 75.96C273.782 75.96 274.085 76.044 274.325 76.212C274.565 76.374 274.724 76.605 274.802 76.905H274.874C274.868 76.803 274.862 76.701 274.856 76.599C274.844 76.509 274.835 76.416 274.829 76.32C274.829 76.218 274.829 76.128 274.829 76.05V74.43H275.639V81H274.874V80.145H274.802C274.724 80.445 274.565 80.679 274.325 80.847C274.085 81.009 273.782 81.09 273.416 81.09C273.164 81.09 272.936 81.045 272.732 80.955C272.528 80.865 272.354 80.739 272.21 80.577C272.066 80.409 271.952 80.205 271.868 79.965C271.79 79.725 271.751 79.455 271.751 79.155V77.895ZM273.722 80.388C274.058 80.388 274.325 80.277 274.523 80.055C274.727 79.833 274.829 79.533 274.829 79.155V77.895C274.829 77.517 274.727 77.217 274.523 76.995C274.325 76.773 274.058 76.662 273.722 76.662C273.356 76.662 273.071 76.77 272.867 76.986C272.663 77.202 272.561 77.505 272.561 77.895V79.155C272.561 79.533 272.663 79.833 272.867 80.055C273.077 80.277 273.362 80.388 273.722 80.388ZM284.29 81.09C283.672 81.09 283.189 80.973 282.841 80.739C282.493 80.499 282.289 80.151 282.229 79.695H283.579C283.621 79.833 283.702 79.938 283.822 80.01C283.948 80.082 284.104 80.118 284.29 80.118H284.74C284.992 80.118 285.184 80.073 285.316 79.983C285.448 79.893 285.514 79.764 285.514 79.596C285.514 79.302 285.274 79.128 284.794 79.074L284.119 79.002C283.501 78.936 283.045 78.78 282.751 78.534C282.463 78.282 282.319 77.925 282.319 77.463C282.319 76.977 282.487 76.605 282.823 76.347C283.165 76.089 283.654 75.96 284.29 75.96H284.74C285.34 75.96 285.808 76.074 286.144 76.302C286.486 76.53 286.684 76.869 286.738 77.319H285.388C285.322 77.055 285.106 76.923 284.74 76.923H284.29C283.846 76.923 283.624 77.073 283.624 77.373C283.624 77.661 283.828 77.829 284.236 77.877L284.956 77.958C286.198 78.102 286.819 78.63 286.819 79.542C286.819 80.052 286.642 80.439 286.288 80.703C285.934 80.961 285.418 81.09 284.74 81.09H284.29ZM289.921 81.09C289.579 81.09 289.267 81.042 288.985 80.946C288.709 80.85 288.472 80.718 288.274 80.55C288.076 80.376 287.923 80.166 287.815 79.92C287.707 79.674 287.653 79.404 287.653 79.11V77.931C287.653 77.631 287.707 77.361 287.815 77.121C287.923 76.881 288.076 76.674 288.274 76.5C288.472 76.326 288.709 76.194 288.985 76.104C289.267 76.008 289.579 75.96 289.921 75.96C290.257 75.96 290.563 76.008 290.839 76.104C291.115 76.2 291.352 76.335 291.55 76.509C291.748 76.683 291.901 76.893 292.009 77.139C292.117 77.379 292.171 77.646 292.171 77.94V78.84H288.985V79.11C288.985 79.41 289.066 79.644 289.228 79.812C289.39 79.974 289.621 80.055 289.921 80.055C290.143 80.055 290.332 80.019 290.488 79.947C290.644 79.875 290.749 79.776 290.803 79.65H292.126C292.072 79.866 291.976 80.064 291.838 80.244C291.706 80.418 291.544 80.568 291.352 80.694C291.16 80.82 290.941 80.919 290.695 80.991C290.455 81.057 290.197 81.09 289.921 81.09ZM290.866 78.03V77.94C290.866 77.64 290.782 77.409 290.614 77.247C290.452 77.079 290.221 76.995 289.921 76.995C289.627 76.995 289.396 77.079 289.228 77.247C289.066 77.409 288.985 77.637 288.985 77.931V78.03H290.866ZM295.362 81.09C295.02 81.09 294.708 81.045 294.426 80.955C294.15 80.865 293.913 80.736 293.715 80.568C293.517 80.4 293.364 80.199 293.256 79.965C293.148 79.725 293.094 79.458 293.094 79.164V77.895C293.094 77.601 293.148 77.337 293.256 77.103C293.364 76.863 293.517 76.659 293.715 76.491C293.913 76.323 294.15 76.194 294.426 76.104C294.708 76.008 295.02 75.96 295.362 75.96C295.662 75.96 295.941 76.002 296.199 76.086C296.457 76.17 296.685 76.29 296.883 76.446C297.081 76.602 297.246 76.791 297.378 77.013C297.51 77.235 297.6 77.484 297.648 77.76H296.298C296.256 77.568 296.151 77.415 295.983 77.301C295.815 77.187 295.608 77.13 295.362 77.13C295.074 77.13 294.849 77.199 294.687 77.337C294.525 77.469 294.444 77.655 294.444 77.895V79.164C294.444 79.404 294.525 79.59 294.687 79.722C294.849 79.854 295.074 79.92 295.362 79.92C295.602 79.92 295.806 79.863 295.974 79.749C296.142 79.629 296.25 79.473 296.298 79.281H297.648C297.6 79.557 297.51 79.806 297.378 80.028C297.246 80.25 297.081 80.442 296.883 80.604C296.685 80.76 296.457 80.88 296.199 80.964C295.941 81.048 295.662 81.09 295.362 81.09ZM298.599 76.05H299.949V79.065C299.949 79.635 300.204 79.92 300.714 79.92C301.224 79.92 301.479 79.635 301.479 79.065V76.05H302.829V79.074C302.829 79.71 302.64 80.205 302.262 80.559C301.89 80.913 301.374 81.09 300.714 81.09C300.042 81.09 299.52 80.913 299.148 80.559C298.782 80.199 298.599 79.704 298.599 79.074V76.05ZM304.148 76.05H305.426V76.905H305.516C305.564 76.599 305.705 76.365 305.939 76.203C306.173 76.041 306.482 75.96 306.866 75.96C307.412 75.96 307.835 76.128 308.135 76.464C308.435 76.794 308.585 77.256 308.585 77.85V78.255H307.145V77.94C307.145 77.67 307.067 77.46 306.911 77.31C306.755 77.16 306.542 77.085 306.272 77.085C306.032 77.085 305.843 77.163 305.705 77.319C305.567 77.469 305.498 77.676 305.498 77.94V81H304.148V76.05ZM309.482 79.776H311.237V77.265H309.707V76.05H312.497V79.776H313.892V81H309.482V79.776ZM310.967 74.745C310.967 74.553 311.027 74.4 311.147 74.286C311.273 74.172 311.438 74.115 311.642 74.115H311.912C312.116 74.115 312.278 74.172 312.398 74.286C312.524 74.4 312.587 74.553 312.587 74.745C312.587 74.937 312.524 75.09 312.398 75.204C312.278 75.318 312.113 75.375 311.903 75.375H311.642C311.438 75.375 311.273 75.318 311.147 75.204C311.027 75.09 310.967 74.937 310.967 74.745ZM314.518 76.05H315.823V74.52H317.173V76.05H319.018V77.265H317.173V79.29C317.173 79.446 317.215 79.569 317.299 79.659C317.389 79.743 317.512 79.785 317.668 79.785H318.928V81H317.533C316.999 81 316.579 80.85 316.273 80.55C315.973 80.244 315.823 79.824 315.823 79.29V77.265H314.518V76.05ZM321.283 76.05L322.147 78.543C322.177 78.633 322.204 78.735 322.228 78.849C322.252 78.963 322.27 79.071 322.282 79.173C322.294 79.299 322.306 79.422 322.318 79.542H322.399C322.405 79.422 322.414 79.299 322.426 79.173C322.438 79.071 322.453 78.963 322.471 78.849C322.489 78.735 322.513 78.633 322.543 78.543L323.362 76.05H324.775L322.462 82.485H321.049L321.724 80.775L319.825 76.05H321.283ZM326.922 80.289C326.922 80.055 326.991 79.869 327.129 79.731C327.273 79.587 327.462 79.515 327.696 79.515C327.93 79.515 328.116 79.587 328.254 79.731C328.398 79.869 328.47 80.055 328.47 80.289C328.47 80.529 328.398 80.724 328.254 80.874C328.116 81.018 327.93 81.09 327.696 81.09C327.462 81.09 327.273 81.018 327.129 80.874C326.991 80.724 326.922 80.529 326.922 80.289Z" fill="black"/>
<path d="M36.2859 49.74C36.5619 49.74 36.7839 49.662 36.9519 49.506C37.1199 49.35 37.2039 49.143 37.2039 48.885V46.626C37.2039 46.374 37.1199 46.17 36.9519 46.014C36.7839 45.858 36.5619 45.78 36.2859 45.78H35.5029V49.74H36.2859ZM34.1529 51V44.52H36.2859C36.6279 44.52 36.9369 44.571 37.2129 44.673C37.4949 44.769 37.7349 44.91 37.9329 45.096C38.1309 45.282 38.2839 45.504 38.3919 45.762C38.4999 46.02 38.5539 46.308 38.5539 46.626V48.885C38.5539 49.203 38.4999 49.494 38.3919 49.758C38.2839 50.016 38.1309 50.238 37.9329 50.424C37.7349 50.604 37.4949 50.745 37.2129 50.847C36.9369 50.949 36.6279 51 36.2859 51H34.1529ZM39.5674 46.05H40.9174V49.065C40.9174 49.635 41.1724 49.92 41.6824 49.92C42.1924 49.92 42.4474 49.635 42.4474 49.065V46.05H43.7974V49.074C43.7974 49.71 43.6084 50.205 43.2304 50.559C42.8584 50.913 42.3424 51.09 41.6824 51.09C41.0104 51.09 40.4884 50.913 40.1164 50.559C39.7504 50.199 39.5674 49.704 39.5674 49.074V46.05ZM44.7659 49.65C44.7659 49.146 44.9489 48.75 45.3149 48.462C45.6809 48.168 46.1789 48.021 46.8089 48.021H47.8799V47.58C47.8799 47.406 47.8049 47.265 47.6549 47.157C47.5109 47.049 47.3129 46.995 47.0609 46.995C46.8389 46.995 46.6529 47.037 46.5029 47.121C46.3589 47.199 46.2659 47.307 46.2239 47.445H44.9189C44.9549 47.217 45.0299 47.013 45.1439 46.833C45.2639 46.647 45.4169 46.491 45.6029 46.365C45.7889 46.233 46.0049 46.134 46.2509 46.068C46.4969 45.996 46.7669 45.96 47.0609 45.96C47.3849 45.96 47.6789 45.999 47.9429 46.077C48.2129 46.155 48.4409 46.266 48.6269 46.41C48.8189 46.548 48.9659 46.716 49.0679 46.914C49.1759 47.112 49.2299 47.334 49.2299 47.58V51H47.9429V50.01H47.8619C47.8199 50.346 47.6609 50.61 47.3849 50.802C47.1149 50.994 46.7699 51.09 46.3499 51.09C45.8639 51.09 45.4769 50.961 45.1889 50.703C44.9069 50.445 44.7659 50.094 44.7659 49.65ZM46.8989 50.055C47.1869 50.055 47.4209 49.989 47.6009 49.857C47.7869 49.719 47.8799 49.545 47.8799 49.335V48.831H46.8089C46.5989 48.831 46.4309 48.885 46.3049 48.993C46.1789 49.095 46.1159 49.242 46.1159 49.434C46.1159 49.626 46.1819 49.779 46.3139 49.893C46.4519 50.001 46.6469 50.055 46.8989 50.055ZM50.5134 46.05H51.7914V46.905H51.8814C51.9294 46.599 52.0704 46.365 52.3044 46.203C52.5384 46.041 52.8474 45.96 53.2314 45.96C53.7774 45.96 54.2004 46.128 54.5004 46.464C54.8004 46.794 54.9504 47.256 54.9504 47.85V48.255H53.5104V47.94C53.5104 47.67 53.4324 47.46 53.2764 47.31C53.1204 47.16 52.9074 47.085 52.6374 47.085C52.3974 47.085 52.2084 47.163 52.0704 47.319C51.9324 47.469 51.8634 47.676 51.8634 47.94V51H50.5134V46.05ZM55.4869 46.05H56.7919V44.52H58.1419V46.05H59.9869V47.265H58.1419V49.29C58.1419 49.446 58.1839 49.569 58.2679 49.659C58.3579 49.743 58.4809 49.785 58.6369 49.785H59.8969V51H58.5019C57.9679 51 57.5479 50.85 57.2419 50.55C56.9419 50.244 56.7919 49.824 56.7919 49.29V47.265H55.4869V46.05ZM63.2684 51.09C62.9264 51.09 62.6144 51.042 62.3324 50.946C62.0564 50.85 61.8194 50.718 61.6214 50.55C61.4234 50.376 61.2704 50.166 61.1624 49.92C61.0544 49.674 61.0004 49.404 61.0004 49.11V47.931C61.0004 47.631 61.0544 47.361 61.1624 47.121C61.2704 46.881 61.4234 46.674 61.6214 46.5C61.8194 46.326 62.0564 46.194 62.3324 46.104C62.6144 46.008 62.9264 45.96 63.2684 45.96C63.6044 45.96 63.9104 46.008 64.1864 46.104C64.4624 46.2 64.6994 46.335 64.8974 46.509C65.0954 46.683 65.2484 46.893 65.3564 47.139C65.4644 47.379 65.5184 47.646 65.5184 47.94V48.84H62.3324V49.11C62.3324 49.41 62.4134 49.644 62.5754 49.812C62.7374 49.974 62.9684 50.055 63.2684 50.055C63.4904 50.055 63.6794 50.019 63.8354 49.947C63.9914 49.875 64.0964 49.776 64.1504 49.65H65.4734C65.4194 49.866 65.3234 50.064 65.1854 50.244C65.0534 50.418 64.8914 50.568 64.6994 50.694C64.5074 50.82 64.2884 50.919 64.0424 50.991C63.8024 51.057 63.5444 51.09 63.2684 51.09ZM64.2134 48.03V47.94C64.2134 47.64 64.1294 47.409 63.9614 47.247C63.7994 47.079 63.5684 46.995 63.2684 46.995C62.9744 46.995 62.7434 47.079 62.5754 47.247C62.4134 47.409 62.3324 47.637 62.3324 47.931V48.03H64.2134Z" fill="#CD2653"/>
</svg>
